<?xml version="1.0" encoding="UTF-8" standalone="no"?>
<!DOCTYPE svg PUBLIC "-//W3C//DTD SVG 1.1//EN" "http://www.w3.org/Graphics/SVG/1.1/DTD/svg11.dtd">
<svg width="100%" height="100%" viewBox="0 0 3959 1652" version="1.1" xmlns="http://www.w3.org/2000/svg" xmlns:xlink="http://www.w3.org/1999/xlink" xml:space="preserve" xmlns:serif="http://www.serif.com/" style="fill-rule:evenodd;clip-rule:evenodd;stroke-linejoin:round;stroke-miterlimit:2;">
    <g id="Page-1" serif:id="Page 1" transform="matrix(4.166667,0,0,1.738246,0,0)">
        <rect x="0" y="0" width="950" height="950" style="fill:none;"/>
        <g id="Layer-1" serif:id="Layer 1" transform="matrix(1,0,0,2.397053,0,-645.478401)">
            <g transform="matrix(1,0,0,1,688.7766,529.2385)">
                <path d="M0,-67.585L0.2,-67.585C5.256,-67.585 9.582,-64.295 11.144,-59.752C12.286,-59.174 13.353,-59.537 14.33,-60.973C20.457,-69.859 37.703,-71.944 43.964,-65.13C48.542,-59.827 47.214,-51.147 38.745,-49.118C30.184,-47.288 22.95,-50.976 16.364,-44.961C14.011,-42.857 12.16,-40.366 11.765,-36.356L11.765,3.648C11.765,10.01 6.561,15.214 0.2,15.214L0,15.214C-6.362,15.214 -11.566,10.01 -11.566,3.648L-11.566,-56.019C-11.566,-62.381 -6.362,-67.585 0,-67.585M-140.534,-47.344C-134.524,-47.688 -127.575,-46.922 -121.769,-47.483C-109.701,-48.652 -110.013,-66.118 -122.215,-66.787C-128.138,-67.114 -134.509,-66.939 -140.477,-66.939C-141.133,-71.82 -137.572,-87.97 -151.951,-88.06C-165.748,-88.146 -163.433,-74.097 -163.433,-67.377C-167.234,-66.412 -169.95,-66.986 -172.758,-64.941C-177.678,-61.355 -177.839,-53.181 -173.012,-49.492C-169.605,-46.892 -167.011,-48.222 -164.221,-47.066C-162.481,-44.631 -163.433,-38.276 -163.433,-34.703C-163.433,-22.001 -164.852,-8.614 -159.328,0.51C-150.07,15.804 -136.35,14.497 -121.288,14.522C-109.807,14.54 -108.327,5.473 -110.744,0.523C-114.211,-6.579 -121.985,-4.982 -131.2,-4.974C-141.466,-4.967 -140.632,-12.181 -140.632,-21.493C-140.632,-29.643 -141.114,-39.386 -140.534,-47.344M-236.848,-31.4C-236.848,-43.309 -234.663,-49.644 -222.251,-49.644C-213.177,-49.644 -208.067,-46.366 -207.59,-37.081C-207.155,-28.595 -207.556,-19.674 -207.556,-11.585C-207.556,0.588 -209.503,11.811 -199.724,14.948C-193.103,17.073 -184.507,13.531 -184.507,3.04L-184.507,-33.759C-184.507,-54.693 -196.28,-68.672 -217.533,-68.672L-226.497,-68.672C-243.896,-68.672 -259.521,-59.57 -259.521,-41.78L-259.521,4.455C-259.521,19.139 -235.804,19.504 -236.714,3.039C-237.182,-6.088 -236.848,-21.62 -236.848,-31.4M-79.823,-19.204L-51.937,-19.204C-43.192,-19.204 -33.248,-17.848 -28.824,-23.382C-24.755,-28.468 -26.041,-40.73 -28.306,-47.009C-37.964,-73.797 -79.233,-80.469 -97.288,-54.102C-101.548,-47.882 -102.846,-41.771 -102.914,-32.344C-102.982,-22.735 -103.543,-14.672 -100.444,-6.958C-92.159,13.662 -65.51,20.561 -43.967,12.439C-19.489,3.212 -30.886,-17.382 -45.731,-9.611C-51.688,-6.492 -57.936,-2.473 -67.277,-4.267C-74.635,-5.681 -79.888,-10.836 -79.823,-19.204M-79.867,-36.619C-79.868,-45.158 -73.025,-51.494 -64.19,-51.203C-52.417,-50.815 -46.345,-37.439 -50.531,-36.646L-79.867,-36.619ZM-307.173,-1.679C-315.032,-1.679 -324.115,-2.85 -324.094,-11.116C-324.075,-19.236 -314.77,-20.049 -306.715,-20.049C-292.391,-20.049 -294.828,-23.851 -294.969,-3.608C-297.78,-1.216 -302.793,-1.679 -307.173,-1.679M-309.531,-70.714C-321.683,-70.714 -341.059,-63.37 -342.045,-51.662C-342.668,-44.272 -334.379,-39.943 -327.568,-42.827C-322.313,-45.052 -317.777,-51.06 -310.475,-51.06C-301.991,-51.06 -295.35,-46.198 -294.964,-38.422C-294.816,-35.4 -296.746,-36.261 -299.624,-36.274C-304.848,-36.295 -314.815,-36.449 -319.103,-35.82C-360.495,-29.738 -351.244,15.806 -320.382,15.806C-308.258,15.806 -297.251,14.443 -285.942,14.376C-271.588,14.29 -271.857,6.076 -271.857,-4.509L-271.857,-29.985C-271.857,-44.378 -273.741,-51.741 -281.463,-59.469C-287.385,-65.394 -297.536,-70.714 -309.531,-70.714" style="fill:rgb(236,6,119);"/>
            </g>
            <g transform="matrix(1,0,0,1,839.2369,580.537)">
                <path d="M0,-155.382L-0.473,-155.382C-16.06,-155.382 -16.026,-132.543 0.003,-132.677C16.243,-132.812 16.729,-155.382 0,-155.382M10.911,-26.556C8.953,-15.034 2.006,-7.692 -7.82,-4.162C-12.862,-2.35 -28.747,0 -33.388,-5.446C-37.737,-10.548 -37.14,-21.887 -23.591,-21.842C-15.767,-21.816 -12.049,-22.691 -11.407,-30.334C-10.198,-44.689 -12.93,-104.969 -10.911,-112.463C-7.775,-124.097 11.328,-123.156 11.357,-109.125C11.376,-99.936 12.19,-34.089 10.911,-26.556M76.277,-87.569C56.617,-87.569 42.505,-88.665 31.475,-77.643C20.393,-66.565 23.443,-48.665 34.928,-40.719C41.255,-36.341 47.024,-35.105 57.106,-35.546C65.385,-35.906 74.09,-36.53 82.554,-36.861C88.216,-37.083 99.123,-36.616 99.555,-47.296C99.908,-55.991 99.575,-65.43 99.575,-74.206C99.575,-83.05 100.273,-92.204 97.476,-99.499C89.719,-119.729 65.04,-127.326 42.635,-117.451C37.686,-115.27 30.05,-109.477 29.649,-103.003C29.134,-94.685 38.209,-90.974 45.147,-94.638C50.758,-97.601 54.975,-103.539 64.211,-102.12C71.224,-101.043 77.592,-95.956 76.277,-87.569M60.922,-70.993C64.57,-71.493 68.658,-71.316 72.658,-71.352C75.27,-71.376 76.541,-71.915 76.767,-69.475C76.907,-67.977 76.748,-65.444 76.748,-63.828C76.748,-60.599 77.841,-55.088 75.122,-53.812C74.234,-53.396 49.81,-49.534 47.74,-60.606C45.73,-71.367 58.596,-70.672 60.922,-70.993M-50.007,-87.763C-57.426,-85.838 -79.967,-92.249 -94.54,-77.693C-107.93,-64.321 -103.181,-33.821 -68.862,-35.555C-60.49,-35.976 -51.727,-36.564 -43.411,-36.865C-38.521,-37.042 -35.017,-36.757 -31.598,-38.814C-28.816,-40.49 -26.849,-43.087 -26.465,-47.321C-25.769,-54.998 -26.42,-66.154 -26.42,-74.206C-26.42,-90.974 -25.267,-104.112 -40.689,-114.666C-64.951,-131.27 -95.642,-115.97 -96.387,-103.004C-96.871,-94.57 -87.638,-90.896 -80.868,-94.68C-75.124,-97.891 -70.875,-103.476 -61.769,-102.102C-57.198,-101.413 -55.115,-100.053 -52.699,-97.462C-51.129,-95.777 -49.841,-93.106 -49.569,-90.682C-49.246,-87.811 -50.006,-87.766 -50.007,-87.763M-65.111,-71.058C-61.515,-71.542 -57.187,-71.314 -53.306,-71.353C-50.317,-71.384 -49.533,-71.99 -49.444,-69.056C-49.311,-64.669 -48.62,-54.908 -50.824,-53.809C-51.53,-53.458 -76.547,-49.561 -78.297,-60.554C-79.976,-71.086 -69.139,-70.515 -65.111,-71.058" style="fill:rgb(236,6,119);"/>
            </g>
            <g transform="matrix(-44.915405,162.244415,162.244415,44.915405,124.81893,293.707263)">
                <path d="M0.444,-0.474C0.652,-0.612 0.924,-0.322 0.663,-0.139C0.555,-0.055 0.459,0.036 0.405,0.158C0.383,0.214 0.373,0.277 0.373,0.353L0.056,0.715C0.04,0.682 0.023,0.62 0.01,0.586C-0.041,0.419 -0.043,0.261 -0.003,0.115C0.059,-0.106 0.216,-0.302 0.444,-0.474Z" style="fill:rgb(236,6,119);fill-rule:nonzero;"/>
            </g>
            <g transform="matrix(-175.130112,244.205551,244.205551,175.130112,286.587637,377.172086)">
                <path d="M-0.274,-0.1C-0.269,-0.083 -0.264,-0.066 -0.259,-0.049C-0.178,-0.114 -0.103,-0.159 -0.021,-0.216L0.23,-0.352C0.309,-0.39 0.391,-0.424 0.476,-0.454C0.833,-0.559 1.158,-0.373 1.12,-0.051C1.085,0.255 0.717,0.504 0.341,0.295C0.209,0.219 0.11,0.109 0.052,0.001L0.241,-0.108C0.28,-0.017 0.367,0.06 0.431,0.095C0.673,0.222 0.879,0.092 0.895,-0.068C0.916,-0.249 0.686,-0.314 0.437,-0.201C0.371,-0.172 0.241,-0.108 0.241,-0.108C0.241,-0.108 0.241,-0.108 0.241,-0.108L0.052,0.001C0.052,0.001 -0.071,0.086 -0.127,0.134C-0.114,0.145 -0.1,0.156 -0.087,0.168C-0.071,0.18 -0.074,0.188 -0.087,0.19C-0.195,0.2 -0.304,0.211 -0.412,0.222C-0.444,0.225 -0.449,0.214 -0.437,0.189C-0.39,0.094 -0.343,-0 -0.296,-0.095C-0.294,-0.099 -0.292,-0.102 -0.291,-0.104C-0.284,-0.113 -0.278,-0.113 -0.274,-0.1Z" style="fill:rgb(236,6,119);fill-rule:nonzero;"/>
            </g>
        </g>
    </g>
    <rect id="Artboard1" x="0" y="0" width="3958.333" height="1651.333" style="fill:none;"/>
    <g id="Artboard2" transform="matrix(1,0,0,0.977594,0,37)">
        <rect x="0" y="0" width="3958.333" height="1651.333" style="fill:none;"/>
    </g>
</svg>
