<svg version="1.2" xmlns="http://www.w3.org/2000/svg" viewBox="0 0 924 291" width="924" height="291">
	<style>
		.s0 { fill: #000000 } 
		.s1 { fill: #00aa13 } 
		.s2 { fill: #ffffff } 
	</style>
	<g id="Layer 1">
		<g id="&lt;Group&gt;">
			<path id="&lt;Compound Path&gt;" fill-rule="evenodd" class="s0" d="m471.41 223.66h10.51c5.73 0 9.11 3.23 9.11 8.41 0 5.26-3.35 8.33-9.11 8.33h-7.32v10.51h-3.19zm10.32 13.71c4.16 0 6.07-1.67 6.07-5.3 0-3.62-1.98-5.37-6.07-5.37h-7.13v10.67zm20.6-7.67c5.84 0 9.73 4.4 9.73 10.9 0 6.5-3.89 10.9-9.73 10.9-5.8 0-9.69-4.4-9.69-10.9 0-6.5 3.89-10.9 9.69-10.9zm0 2.84c-4.09 0-6.66 3.12-6.66 8.06 0 4.95 2.57 8.06 6.66 8.06 4.09 0 6.7-3.11 6.7-8.06 0-4.94-2.61-8.06-6.7-8.06zm11.69-2.26h2.99l3.74 16.04h0.08l5.53-16.04h2.76l5.53 16.04h0.08l3.74-16.04h2.99l-4.94 20.64h-2.88l-5.84-16.86h-0.08l-5.88 16.86h-2.88zm38.98-0.59c5.53 0 9.22 4.17 9.22 10.24v1.56h-15.69c0.08 3.97 2.61 7.24 6.39 7.24 2.92 0 4.55-1.05 6.31-4.12l2.53 1.51c-1.76 3.55-4.75 5.38-8.76 5.38-5.73 0-9.54-4.4-9.54-10.9 0-6.51 3.93-10.91 9.54-10.91zm6.15 9.35c-0.04-1.91-0.66-3.47-1.79-4.71q-1.69-1.87-4.36-1.87c-3.51 0-6.31 3.11-6.39 6.58zm7.4-8.76h2.88v1.71h0.08c0.78-1.28 2.3-2.06 4.28-2.06q0.95 0.01 2.07 0.31l-0.67 3.15c-0.74-0.23-1.44-0.35-2.02-0.35-2.45 0-3.58 1.64-3.58 5.49v12.38h-3.04zm20.25-0.58c5.53 0 9.23 4.17 9.23 10.24v1.56h-15.69c0.07 3.97 2.6 7.24 6.38 7.24 2.92 0 4.56-1.05 6.31-4.13l2.53 1.52c-1.75 3.54-4.75 5.37-8.76 5.37-5.72 0-9.54-4.4-9.54-10.9 0-6.5 3.93-10.9 9.54-10.9zm6.15 9.34c-0.04-1.9-0.66-3.46-1.79-4.71q-1.68-1.87-4.36-1.87c-3.5 0-6.31 3.12-6.39 6.58zm15.89-9.34c2.49 0 4.71 1.05 6.07 2.76h0.08v-9.96h3.04v28.42h-2.92v-2.07h-0.08c-1.36 1.68-3.66 2.65-6.19 2.65-5.37 0-9.27-4.48-9.27-10.9 0-6.42 3.9-10.9 9.27-10.9zm6.15 8.88c0-3.35-2.72-6.04-6.15-6.04-3.7 0-6.23 3.19-6.23 8.06 0 4.87 2.53 8.06 6.43 8.06 3.27 0 5.95-2.73 5.95-6.07zm21.62 10.27v2.07h-2.93v-28.42h3.04v9.96h0.08c1.36-1.71 3.58-2.76 6.07-2.76 5.38 0 9.27 4.48 9.27 10.9 0 6.42-3.89 10.9-9.27 10.9-2.53 0-4.83-0.97-6.19-2.65zm6.27-16.31c-3.42 0-6.15 2.69-6.15 6.04v4.01c0 3.34 2.69 6.07 5.96 6.07 3.89 0 6.42-3.19 6.42-8.06 0-4.87-2.53-8.06-6.23-8.06zm18.23 16.63l-7.95-18.89h3.23l6.27 15.38h0.08l6.31-15.38h3.23l-12.38 29.4h-3.16z"/>
			<g id="&lt;Group&gt;">
				<g id="&lt;Group&gt;">
					<g id="&lt;Group&gt;">
						<path id="&lt;Compound Path&gt;" class="s1" d="m699.99 240.13c0-5.58 4.54-10.11 10.15-10.11 5.6 0 10.14 4.52 10.14 10.11 0 5.58-4.54 10.1-10.14 10.1-5.61 0-10.15-4.52-10.15-10.1z"/>
					</g>
					<g id="&lt;Group&gt;">
						<path id="&lt;Compound Path&gt;" class="s1" d="m710.14 213.18c-14.94 0-27.05 12.06-27.05 26.95 0 11.17 6.77 20.71 16.6 24.86q0.94 0.39 1.97 0.39c2.41 0 4.49-1.7 4.96-4.06q0.1-0.49 0.1-0.99c0-2.04-1.23-3.88-3.11-4.66v-0.01c-6.1-2.54-10.38-8.54-10.38-15.53 0-9.31 7.57-16.85 16.91-16.85 9.34 0 16.91 7.54 16.91 16.85 0 6.99-4.28 12.99-10.38 15.53v0.01c-1.88 0.78-3.11 2.62-3.11 4.66 0 2.79 2.26 5.05 5.05 5.05q0.01 0 0.01 0 1.02-0.01 1.96-0.39c9.84-4.15 16.61-13.69 16.61-24.86 0-14.89-12.11-26.95-27.05-26.95z"/>
					</g>
					<g id="&lt;Group&gt;">
						<path id="&lt;Compound Path&gt;" fill-rule="evenodd" class="s0" d="m790.08 237.14c0-8.95 7.11-15.87 17.02-15.87 9.95 0 17 6.92 17 15.87 0 8.95-7.05 15.87-17 15.87-9.9 0-17.02-6.92-17.02-15.87zm25.6 0c0-4.88-3.35-8.5-8.58-8.5-5.24 0-8.6 3.62-8.6 8.5 0 4.87 3.36 8.5 8.6 8.5 5.23 0 8.58-3.63 8.58-8.5zm10.08 22.35c2.45 0 3.3-0.91 3.3-3.06v-35.15h8.42v35.26c0 7.43-3.01 10.6-11.03 10.6h-5.24v-7.65zm-40.7-38.23v30.9c0 8.55-6.58 14.98-16.2 14.98-6.33 0-11.86-2.21-15.54-6.09l5.48-5.26c2.4 2.28 5.15 3.61 9.89 3.61 4.69 0 8.24-3.02 8.24-7.13v-3.05l-0.11-0.01c-2.12 2.34-5.62 3.66-9.79 3.66-9.34 0-16.32-6.73-16.32-15.92 0-8.84 6.81-15.68 16.03-15.68 4.29 0 7.9 1.26 10.08 3.54l0.11-0.01v-3.54zm-8.47 13.98c0-3.48-3.84-6.55-8.25-6.55-5.55 0-9.16 3.36-9.16 8.27 0 5.3 3.38 8.49 8.82 8.49 4.81 0 8.59-2.96 8.59-6.67zm83.28 10.96c3.38 0 5.68-0.89 8.22-3.25l5.7 3.99c-2.43 2.97-7.08 6.06-13.56 6.06-10.58 0-17.79-6.29-17.79-15.81 0-9.24 6.83-15.92 16.39-15.92 10.12 0 16.38 7.14 16.38 16.15v2.38h-24.46c0.11 3.15 4.07 6.4 9.12 6.4zm-0.87-18.14c-4.55 0.01-7.68 2.33-8.14 5.84h16.16c-0.4-3.51-3.53-5.83-8.02-5.84zm21.17-14.97h8.13l0.04 20.81h0.11l13.61-12.71h10.9l-14.11 13.3 14.05 18.49h-9.73l-9.64-13.36h-0.11l-5.12 4.82v8.56h-8.13z"/>
					</g>
				</g>
			</g>
			<g id="&lt;Group&gt;">
				<path id="&lt;Path&gt;" class="s1" d="m290.97 145.32c0-79.94-65.2-145.15-145.15-145.15-79.95 0-145.15 65.21-145.15 145.15 0 79.95 65.2 145.15 145.15 145.15 79.95 0 145.15-65.2 145.15-145.15z"/>
				<path id="&lt;Path&gt;" class="s2" d="m223.41 111.01c-0.45-5.71-3.44-10.93-8.14-14.22-4.57-3.3-9.31-6.52-14.08-9.55-19.11 8.75-43.53 21.26-63.24 31.59-6.77 3.54-11.11 10.47-11.32 18.11-0.08 9.69-0.4 19.89-0.4 29.77l-14.91-24.59-14.91 9.73q0.13-14.12 0.87-28.24c0.39-7.45 4.68-14.16 11.29-17.63 20.72-10.91 46.22-24.36 66.01-34.03-6.62-3.47-13.43-6.75-20.28-9.76-2.4-1.01-4.97-1.54-7.55-1.54-2.58 0-5.14 0.52-7.52 1.52-21.63 8.81-42.46 19.99-61.81 33.11-4.68 3.13-7.72 8.21-8.26 13.82-1.28 13.64-1.96 27.44-1.96 41.2 0 7.88 0.21 15.81 0.63 23.64 0.31 5.28 2.81 10.19 6.89 13.54 18.63 15.98 39.25 29.7 61.22 40.65 2.61 1.22 5.48 1.86 8.38 1.86 3.04 0 6.05-0.7 8.77-2.05 21.81-11 42.65-23.93 62.17-38.58 4.48-3.26 7.32-8.28 7.78-13.77 1.74-21.49 1.86-43.08 0.37-64.58z"/>
			</g>
			<path id="&lt;Compound Path&gt;" fill-rule="evenodd" class="s0" d="m873.16 78.72q0.91-0.05 1.84-0.05c9.16 0 18.05 3.18 25.13 8.98l0.32 0.01v-37.96h23.21v114.49h-21.49v-8.15h-0.31c-6.86 6.77-16.12 10.57-25.76 10.57q-1.16 0-2.32-0.07-1.11 0.06-2.23 0.06c-23.63 0-42.8-19.16-42.8-42.79q0-0.59 0.02-1.18 0-0.32 0-0.66c0-23.89 19.37-43.27 43.27-43.27q0.56 0 1.11 0.02zm26.96 37.54c0-9.88-10.97-18.04-23.67-18.04q-0.86-0.07-1.72-0.07c-12.74 0-23.07 10.33-23.07 23.08q0 0.26 0 0.52c0 14.27 9.72 23.37 24.78 23.37 13.17 0 23.68-8.16 23.68-18.36v-10.5zm-173.47-35.19h22.44v7.85h0.31c7.47-6.58 17.11-10.22 27.07-10.22q0.51 0 1 0.01c23.52 0 39.84 15.53 39.84 38.11v47.37h-23.21v-44.38c0-12.7-8.31-20.39-21.64-20.39q-1.01-0.1-2.02-0.1c-11.32 0-20.53 9.16-20.57 20.48v44.38l-23.21 0.01zm-57.58-2.35q1.08-0.06 2.18-0.06c23.75 0 43.02 19.26 43.02 43.02q-0.01 0.87-0.04 1.73v6.59h-67.44c0.79 10.82 9.73 17.72 23.53 17.72 9.94-0.07 19.34-4.63 25.56-12.39l14.43 14.43c-9.64 10.7-23.38 16.82-37.78 16.82q-1.03 0-2.05-0.04c-29.02 0-46.59-17.41-46.59-43.76q-0.01-0.48-0.01-0.97c0-23.83 19.32-43.15 43.14-43.15q1.03 0 2.05 0.05zm23.15 35.28c-1.09-9.89-9.72-16.16-22.11-16.16-12.54 0-21.18 6.27-22.43 16.16zm-142.37 18.05c3.29 10.66 11.76 15.99 25.09 15.99 12.08 0 18.98-2.67 18.98-7.21 0-4.86-5.02-7.07-20.54-9.42-30.43-4.7-41.25-12.07-41.25-26.97 0-15.37 15.37-25.72 38.26-25.72 20.87 0 39.84 10.66 44.23 25.09l-21.17 6.44c-3.98-8.04-12.17-13.12-21.13-13.12q-1.04 0-2.08 0.09c-9.57 0-15.84 2.82-15.84 7.21 0 4.4 4.39 5.97 22.74 9.1 28.07 4.39 39.21 12.08 39.21 27.13 0 15.53-16.62 25.89-41.56 25.89q-0.91 0.02-1.83 0.02c-10.29 0-20.39-2.78-29.23-8.03-7.97-4.6-13.67-12.34-15.68-21.33l21.8-5.17zm-74.83-53.32c27.13 0 46.89 19.29 46.89 43.91 0 24.62-19.76 43.91-46.89 43.91q-1.47 0.09-2.96 0.1c-24.3 0-44-19.71-44-44.01 0-24.3 19.7-44.01 44-44.01q1.49 0 2.96 0.1zm-0.2 20.41c-12.93 0.07-23.37 10.59-23.37 23.52 0 12.99 10.53 23.52 23.52 23.52 12.99 0 23.52-10.53 23.53-23.52q0.02-0.52 0.02-1.04c0-12.43-10.09-22.52-22.52-22.52q-0.59 0-1.18 0.03zm-130.94 69.15c6.01 8.56 15.83 13.68 26.3 13.68q0.82-0.01 1.62-0.04c13.02 0 22.59-8.32 22.59-19.61v-5.96l-0.32 0.01c-6.61 6.46-15.51 10.09-24.77 10.09q-1.03-0.01-2.05-0.06-0.64 0.01-1.29 0.01c-24 0-43.45-19.45-43.45-43.45 0-23.99 19.45-43.45 43.45-43.45q0.26 0 0.51 0.01 1.19-0.08 2.39-0.08c9.33 0 18.33 3.5 25.21 9.8h0.32v-8.16l22.26 0.01v80.92c0 23.52-18.66 39.84-44.85 39.84q-1.45 0.07-2.91 0.07c-16.15 0-31.45-7.29-41.63-19.84l16.63-13.8zm48.86-49c0-9.41-10.66-18.04-22.58-18.04-15.05 0-25.1 9.1-25.1 22.74q-0.05 0.76-0.05 1.52c0 12.13 9.84 21.97 21.97 21.97q1.13 0 2.25-0.11c13 0 23.52-8.17 23.52-18.36v-9.72z"/>
		</g>
	</g>
</svg>