<?xml version="1.0" encoding="UTF-8" standalone="no"?>
<!DOCTYPE svg PUBLIC "-//W3C//DTD SVG 1.1//EN" "http://www.w3.org/Graphics/SVG/1.1/DTD/svg11.dtd">
<svg width="100%" height="100%" viewBox="0 0 1465 246" version="1.1" xmlns="http://www.w3.org/2000/svg" xmlns:xlink="http://www.w3.org/1999/xlink" xml:space="preserve" xmlns:serif="http://www.serif.com/" style="fill-rule:evenodd;clip-rule:evenodd;stroke-linejoin:round;stroke-miterlimit:2;">
    <g transform="matrix(1,0,0,1,0.58,-3.16)">
        <g opacity="0.8">
            <g id="Clip-Path" transform="matrix(1,0,0,1,0,-1)">
                <clipPath id="_clip1">
                    <rect x="-0.58" y="4.17" width="1464.21" height="245.74"/>
                </clipPath>
                <g clip-path="url(#_clip1)">
                    <g>
                        <path d="M-0.58,108.32C-0.58,161.13 38.68,200.49 91.45,200.49C139.55,200.49 168.99,170.42 168.99,121.76L168.99,96.8L93.15,96.8L93.15,111L155.23,111L155.23,124.21C155.23,162.35 131.43,186.06 91.44,186.06C47.52,186.06 14.88,152.57 14.88,108.32C14.88,65.29 49.23,31.31 93.64,31.31C114.75,31.31 133.89,36.44 148.36,46.47L148.36,32.04C134.38,22.02 115.97,16.88 93.64,16.88C40.38,16.88 -0.58,57.22 -0.58,108.32ZM22.24,108.32C22.24,148.17 52.42,178.73 91.43,178.73C128.97,178.73 147.87,154.52 147.87,127.88L147.87,118.34L93.15,118.34L93.15,132.99L132.9,132.99C133.15,147.42 119.9,164.29 91.44,164.29C60.03,164.29 38.19,141.06 38.19,108.3C38.19,76.77 61.75,53.05 94.13,53.05C115.24,53.05 131.92,58.18 147.38,68.94L148.36,68.21L148.36,54.53C136.83,46.47 117.2,38.64 93.64,38.64C53.64,38.64 22.24,69.45 22.24,108.32ZM178.78,196.34L193.26,196.34L193.26,120.79C193.26,90.94 213.38,70.67 242.58,70.67C252.38,70.67 262.45,73.85 266.87,76.54C269.59,73.36 272.51,69.93 276.44,66.77C267.36,60.42 255.09,56.75 241.84,56.75C203.32,56.75 178.78,82.66 178.78,121.05L178.78,196.34ZM200.13,120.79L200.13,196.33L214.61,196.33L214.61,121.03C214.61,104.16 225.65,92.18 242.09,92.18C246.99,92.18 251.41,93.4 256.07,95.36C257.8,91.09 259.94,86.99 262.45,83.13C257.3,79.71 249.69,77.51 242.33,77.51C217.55,77.51 200.13,95.36 200.13,120.79ZM405.75,111.74L405.75,133C414.33,121.52 421.7,111.5 428.57,103.16C445.99,81.89 461.2,70.15 484.76,70.15C516.65,70.15 539.96,94.11 539.96,127.85C539.96,160.86 517.14,186.04 485.74,186.04C460.22,186.04 438.14,168.68 432.98,144.96L422.68,158.92C430.78,182.15 454.58,200.48 485.5,200.48C525.25,200.48 554.44,168.7 554.44,127.87C554.44,86.56 525,55.51 484.74,55.51C443.04,55.49 423.91,86.56 405.75,111.74ZM450.65,122.49L450.16,122.49L438.87,137.9C440.83,155.5 458.75,178.97 485.74,178.97C513.22,178.97 533.12,156.72 533.12,127.63C533.12,98.53 512.75,77.02 484.78,77.02C457.55,77.02 441.84,96.82 430.8,111.5C425.4,118.58 416.09,130.07 405.75,144.5L405.75,167.96C415.31,153.79 428.32,137.16 437.88,125.67C454.07,106.36 463.88,91.69 484.49,91.69C504.64,91.69 518.35,107.09 518.35,127.63C518.35,148.9 505.35,164.53 485.72,164.53C465.11,164.53 450.63,145.7 450.63,124.68L450.65,122.49ZM436.17,4.16L436.17,65.03C440.59,61.61 445.5,57.44 450.65,55.5L450.65,4.16L436.17,4.16ZM414.59,87.28C419,81.66 423.91,75.54 429.06,70.41L429.06,4.16L414.59,4.16L414.59,87.28ZM258.53,127.86C258.53,170.4 288.71,200.47 329.44,200.47C338.52,200.47 349.07,197.76 355.7,192.65L355.7,178.23C351.28,181.89 340.49,186.05 329.44,186.05C296.07,186.05 273.5,162.58 273.5,127.86C273.5,94.86 297.55,70.16 329.44,70.16C361.09,70.16 384.16,93.39 384.16,125.91L384.16,196.32L398.87,196.32L398.87,125.66C398.87,85.07 370.15,55.25 329.43,55.25C289.45,55.25 258.53,86.79 258.53,127.86ZM355.7,156.95L355.46,156.7C349.32,161.59 339.26,164.53 329.69,164.53C310.09,164.53 295.34,149.88 295.34,128.1C295.34,107.32 309.82,91.43 329.2,91.43C350.06,91.43 362.82,106.58 362.82,126.88L362.82,196.33L377.29,196.33L377.29,126.15C377.29,97.79 357.42,77.01 329.45,77.01C301.72,77.01 280.37,97.79 280.37,128.1C280.37,158.18 301.48,179.69 329.45,178.96C340,178.71 350.8,174.8 355.7,171.36L355.7,156.95Z" style="fill:rgb(0,177,79);fill-rule:nonzero;"/>
                        <path d="M688.95,169.65L688.95,196.08L578.68,196.08L578.68,19.9L687.96,19.9L687.96,46.33L607.41,46.33L607.41,93.31L679.84,93.31L679.84,119.73L607.41,119.73L607.41,169.65L688.95,169.65ZM831.4,62.22L781.57,129.03L830.44,194.86L830.44,196.08L795.81,196.08L763.64,151.3L731.71,196.08L697.09,196.08L697.09,194.86L745.47,129.52L695.37,62.24L695.37,61.01L730,61.01L763.4,107.51L796.8,61.01L831.42,61.01L831.4,62.22ZM917.37,199.74C896.99,199.74 880.78,188.24 875.14,176.25L873.9,176.25L873.9,249.92L845.66,249.92L845.66,128.31C845.66,83.77 874.15,56.61 914.43,56.61C954.7,56.61 983.68,83.77 983.68,128.31C983.68,173.08 954.95,199.76 917.37,199.76L917.37,199.74ZM914.65,83.26C891.32,83.26 873.88,101.12 873.88,130.25C873.88,156.18 891.57,173.06 914.65,173.06C937.73,173.06 955.44,156.42 955.44,129.29C955.44,101.14 938,83.28 914.67,83.28L914.65,83.26Z" style="fill:rgb(0,177,79);fill-rule:nonzero;"/>
                        <path d="M1093.72,68.6C1088.83,75.7 1085.37,81.32 1082.43,89.4L1081.44,90.13C1074.62,86.36 1066.93,84.43 1059.12,84.51C1038.49,84.51 1029.89,99.92 1029.89,121.7L1029.89,197.31L1001.64,197.31L1001.39,119.25C1001.14,79.61 1020.79,57.83 1060.07,57.83C1070.89,57.83 1085.62,62.01 1093.72,68.6Z" style="fill:rgb(0,177,79);fill-rule:nonzero;"/>
                        <path d="M1222.67,139.3L1123.7,139.3C1126.89,159.86 1146.02,172.83 1172.09,172.83C1189.28,172.83 1205,169.4 1219,160.35L1219.73,161.08L1219.73,186.8C1205.49,196.34 1189.03,199.77 1168.16,199.77C1121.98,199.77 1094.22,173.34 1094.22,125.86C1094.22,84.25 1121.25,56.36 1161.27,56.36C1200.83,56.36 1223.66,82.3 1223.66,122.68C1223.727,128.24 1223.397,133.78 1222.67,139.3ZM1195.44,115.56C1195.44,96.22 1181.93,83 1159.83,83C1139.94,83 1125.2,95.73 1123.48,115.56L1195.44,115.56Z" style="fill:rgb(0,177,79);fill-rule:nonzero;"/>
                        <path d="M1242.57,162.8L1243.3,162.31C1257.55,168.91 1273.77,172.83 1286.54,172.83C1304.47,172.83 1314.31,168.18 1314.31,157.41C1314.31,145.42 1304.98,143.46 1292.69,140.53L1277.96,137.1C1253.65,131.47 1239.64,121.68 1239.64,97.7C1239.64,68.09 1266.42,56.58 1295.88,56.58C1311.85,56.58 1325.11,59.52 1334.45,64.41L1334.45,91.33L1333.72,91.82C1323.4,86.94 1308.17,83.26 1295.88,83.26C1282.63,83.26 1269.85,85.71 1269.61,96.97C1269.36,108.22 1280.39,109.69 1295.64,113.11L1307.19,115.83C1327.82,120.71 1343.54,132.47 1343.54,155.98C1343.54,186.33 1319.48,199.79 1286.81,199.79C1272.81,199.79 1255.12,195.87 1242.59,189.75L1242.57,162.8Z" style="fill:rgb(0,177,79);fill-rule:nonzero;"/>
                        <path d="M1362.68,162.8L1363.42,162.31C1377.66,168.91 1393.87,172.83 1406.65,172.83C1424.57,172.83 1434.42,168.18 1434.42,157.41C1434.42,145.42 1425.09,143.46 1412.81,140.53L1398.03,137.1C1373.71,131.47 1359.72,121.68 1359.72,97.7C1359.72,68.09 1386.49,56.58 1415.97,56.58C1431.93,56.58 1445.2,59.52 1454.53,64.41L1454.53,91.33L1453.79,91.82C1443.45,86.94 1428.24,83.26 1415.97,83.26C1402.7,83.26 1389.93,85.71 1389.68,96.97C1389.44,108.22 1400.49,109.69 1415.72,113.11L1427.26,115.83C1447.9,120.71 1463.62,132.47 1463.62,155.98C1463.62,186.33 1439.54,199.79 1406.87,199.79C1392.87,199.79 1375.19,195.87 1362.67,189.75L1362.68,162.8Z" style="fill:rgb(0,177,79);fill-rule:nonzero;"/>
                    </g>
                </g>
            </g>
        </g>
    </g>
</svg>
