<?xml version="1.0" encoding="UTF-8" standalone="no"?>
<!DOCTYPE svg PUBLIC "-//W3C//DTD SVG 1.1//EN" "http://www.w3.org/Graphics/SVG/1.1/DTD/svg11.dtd">
<svg width="100%" height="100%" viewBox="0 0 360 300" version="1.1" xmlns="http://www.w3.org/2000/svg" xmlns:xlink="http://www.w3.org/1999/xlink" xml:space="preserve" xmlns:serif="http://www.serif.com/" style="fill-rule:evenodd;clip-rule:evenodd;stroke-linejoin:round;stroke-miterlimit:2;">
    <g transform="matrix(0.225141,0,0,0.224744,-45.140713,-74.74323)">
        <path d="M259,1445.45L444.6,1445.45L428.43,1505.14L314.29,1505.14L308.38,1527.22L366.82,1527.22L352.82,1579.76L294.39,1579.76L287.86,1603.38L403.51,1603.38L387.65,1663.07L200.5,1663.07L259,1445.45Z" style="fill:rgb(255,0,0);fill-rule:nonzero;"/>
    </g>
    <g transform="matrix(0.225141,0,0,0.224744,-45.140713,-74.74323)">
        <path d="M512.65,1548.67L468.82,1445.45L547.47,1445.45L567.67,1498.3L614.67,1445.45L698.92,1445.45L599.44,1551.77L647,1663.07L568.3,1663.07L545,1601.52L490,1663.07L405.71,1663.07L512.65,1548.67Z" style="fill:rgb(255,0,0);fill-rule:nonzero;"/>
    </g>
    <g transform="matrix(0.225141,0,0,0.224744,-45.140713,-74.74323)">
        <path d="M724.69,1445.45L797.75,1445.45C837.85,1445.45 862.41,1453.22 878.58,1469.39C890.08,1480.89 895.68,1496.13 895.68,1513.23C895.68,1567.63 854.68,1604 785.62,1604L754.85,1604L739,1663.07L666.24,1663.07L724.69,1445.45ZM781.89,1552.09C809.56,1552.09 822.31,1539.65 822.31,1523.17C822.294,1518.394 820.392,1513.812 817.02,1510.43C812.02,1505.43 803.35,1503.59 795.26,1503.59L781.58,1503.59L768.83,1552.09L781.89,1552.09Z" style="fill:rgb(255,0,0);fill-rule:nonzero;"/>
    </g>
    <g transform="matrix(0.225141,0,0,0.224744,-45.140713,-74.74323)">
        <path d="M947,1445.45L1031.87,1445.45C1071.98,1445.45 1097.47,1454.16 1112.09,1468.77C1124.2,1480.89 1129.18,1497.06 1129.18,1514.16C1129.18,1548.05 1111.46,1577.27 1068.56,1590.63L1098.72,1663.07L1020.37,1663.07L996.12,1600.9L978.12,1600.9L961.33,1663.07L888.55,1663.07L947,1445.45ZM1018.2,1548.98C1042.45,1548.98 1055.2,1537.78 1055.2,1524.11C1055.26,1519.804 1053.578,1515.652 1050.54,1512.6C1046.54,1508.6 1039.34,1506.39 1029.09,1506.39L1003.28,1506.39L991.76,1549L1018.2,1548.98Z" style="fill:rgb(255,0,0);fill-rule:nonzero;"/>
    </g>
    <g transform="matrix(0.225141,0,0,0.224744,-45.140713,-74.74323)">
        <path d="M1184.22,1445.45L1369.82,1445.45L1353.65,1505.14L1239.56,1505.14L1233.65,1527.22L1292.09,1527.22L1278.09,1579.76L1219.64,1579.76L1213.11,1603.38L1328.76,1603.38L1312.91,1663.07L1125.78,1663.07L1184.22,1445.45Z" style="fill:rgb(255,0,0);fill-rule:nonzero;"/>
    </g>
    <g transform="matrix(0.225141,0,0,0.224744,-45.140713,-74.74323)">
        <path d="M1350.26,1627.94L1391.92,1578.2C1416.79,1599.03 1442.27,1608.98 1465.28,1608.98C1474.61,1608.98 1481.14,1605.56 1481.14,1599.34C1481.14,1592.5 1477.09,1590.34 1445.38,1578.51C1404.97,1563.59 1386,1549.29 1386,1517.27C1386,1475.27 1424.56,1441.1 1483.93,1441.1C1522.8,1441.1 1557.3,1453.54 1580.93,1473.74L1539.27,1523.48C1522.8,1510.12 1499.48,1499.24 1476.48,1499.24C1467.14,1499.24 1460.62,1501.72 1460.62,1507.94C1460.62,1514.47 1465.28,1515.71 1495.44,1526.94C1532.44,1540.62 1556.06,1556.17 1556.06,1589.43C1556.06,1633.27 1519.99,1667.43 1457.51,1667.43C1414.3,1667.43 1376.68,1651.88 1350.26,1627.94Z" style="fill:rgb(255,0,0);fill-rule:nonzero;"/>
    </g>
    <g transform="matrix(0.225141,0,0,0.224744,-45.140713,-74.74323)">
        <path d="M1568.82,1627.94L1610.48,1578.2C1635.35,1599.03 1660.84,1608.98 1683.84,1608.98C1693.18,1608.98 1699.7,1605.56 1699.7,1599.34C1699.7,1592.5 1695.7,1590.34 1663.95,1578.51C1623.54,1563.59 1604.57,1549.29 1604.57,1517.27C1604.57,1475.27 1643.12,1441.1 1702.5,1441.1C1741.36,1441.1 1775.87,1453.54 1799.5,1473.74L1757.84,1523.48C1741.36,1510.12 1718.05,1499.24 1695.04,1499.24C1685.71,1499.24 1679.18,1501.72 1679.18,1507.94C1679.18,1514.47 1683.84,1515.71 1714,1526.94C1751,1540.62 1774.63,1556.17 1774.63,1589.43C1774.63,1633.27 1738.56,1667.43 1676.08,1667.43C1632.86,1667.43 1595.25,1651.88 1568.82,1627.94Z" style="fill:rgb(255,0,0);fill-rule:nonzero;"/>
    </g>
    <g transform="matrix(0.225141,0,0,0.224744,-45.140713,-74.74323)">
        <path d="M1690.57,461.71C1614.57,385.76 1492.82,332.71 1297.92,332.71L942.52,332.71L864.94,625.07L1254.94,625.07C1335.2,625.07 1385.34,643.7 1416.88,675.23C1442.67,701.02 1458.43,736.86 1458.43,791.29C1458.43,852.92 1428.34,920.29 1386.79,961.85C1335.2,1013.42 1247.79,1043.51 1146.03,1043.51L1087.27,1043.51L1122.34,904.51L1159.46,764.16L357.62,764.16L204.5,1335.87L529.81,1335.87L645.33,904.47L788.23,904.47L673.1,1335.87L1108.76,1335.87C1340.92,1335.87 1514.3,1271.39 1634.69,1151C1742.18,1043.51 1799.5,905.94 1799.5,755.48C1799.5,633.68 1765.11,536.22 1690.57,461.71Z" style="fill:rgb(255,0,0);fill-rule:nonzero;"/>
    </g>
    <g transform="matrix(0.169244,-0.148214,0.148475,0.168946,-85.715572,41.247331)">
        <ellipse cx="595.28" cy="497.38" rx="187.84" ry="144.6" style="fill:rgb(255,0,0);"/>
    </g>
</svg>
