<?xml version="1.0" encoding="UTF-8" standalone="no"?><!DOCTYPE svg PUBLIC "-//W3C//DTD SVG 1.1//EN" "http://www.w3.org/Graphics/SVG/1.1/DTD/svg11.dtd"><svg width="100%" height="100%" viewBox="0 0 1087 250" version="1.1" xmlns="http://www.w3.org/2000/svg" xmlns:xlink="http://www.w3.org/1999/xlink" xml:space="preserve" xmlns:serif="http://www.serif.com/" style="fill-rule:evenodd;clip-rule:evenodd;stroke-linejoin:round;stroke-miterlimit:2;"><path d="M247.737,0l-70.035,0l-45.735,199.94l-106.875,0l-25.092,48.753l191.809,0l55.927,-248.68l0,-0.014Zm690.298,158.863c-15.732,8.262 -26.906,23.506 -29.867,40.982c-0.014,0.082 -0.027,0.177 -0.041,0.259c-2.429,14.182 -0.068,26.799 6.604,35.102c6.631,8.602 17.424,13.039 33.333,13.039c11.502,0 23.536,-3.144 29.976,-5.444l8.241,-50.877l-29.826,0l-2.893,17.054l12.907,0.054l-3.275,20.198c-1.692,0.857 -7.381,1.375 -11.898,1.375c-12.362,0 -20.712,-6.901 -22.526,-19.041c-0.109,-0.735 -0.15,-1.511 -0.15,-2.246c0.082,-22.09 12.375,-31.413 12.375,-31.413l0.014,0c0.764,-0.803 1.569,-1.552 2.442,-2.205c0,0 6.972,-7.105 23.85,-7.84c4.68,-0.204 10.097,0.082 16.373,1.157c2.088,0.354 4.257,0.789 6.536,1.334l3.356,-17.163l-0.205,-0.054l0.205,0.054c0,0 -1.842,-0.517 -4.966,-1.089l-0.3,-0.054c-9.537,-1.674 -30.522,-3.566 -50.279,6.805l0.014,0.014Zm-224.46,8.534c4.421,0 8.2,0.612 11.366,1.484l4.08,-17.98c-3.657,-0.749 -8.118,-1.266 -13.303,-1.266c-28.08,0 -53.812,18.048 -59.488,50.482c-4.748,27.085 8.173,47.678 40.237,47.678c5.308,0 10.097,-0.504 14.149,-1.239l3.193,-16.578l0.259,-1.32c-3.575,0.735 -7.586,1.225 -11.284,1.225c-16.141,0 -24.969,-8.929 -24.955,-23.601c0,-2.341 0.205,-4.805 0.669,-7.431c3.711,-21.151 18.447,-31.454 35.093,-31.454l-0.014,0Zm350.245,31.808c-3.22,18.769 -13.74,32.815 -27.875,32.815c-14.135,0 -20.221,-13.325 -16.96,-32.244c3.22,-18.769 13.876,-32.815 28.011,-32.815c14.135,0 19.811,14.904 16.823,32.244Zm-13.303,-49.584c28.407,0 40.1,22.213 35.516,48.862c-5.43,31.672 -27.125,50.877 -54.167,50.877c-27.043,0 -39.786,-21.641 -35.065,-49.162c4.98,-28.936 26.401,-50.591 53.703,-50.591l0.014,0.014Zm-172.98,30.529c-1.501,8.452 -8.882,13.896 -19.716,13.896l-8.541,0l4.762,-26.65c1.61,-0.286 4.694,-0.721 9.96,-0.721c9.947,0.136 15.131,4.587 13.549,13.461l-0.014,0.014Zm-13.085,-29.658c-11.543,0 -22.09,0.857 -29.267,2.001l-16.987,95.302l21.503,0l6.767,-37.974l6.549,0c8.8,0.136 12.348,3.43 12.771,15.475c0.737,11.896 1.624,19.627 2.674,22.498l22.213,0c-1.187,-3.729 -1.924,-16.333 -2.974,-27.235c-0.832,-8.888 -3.397,-15.339 -9.592,-18.061l0.068,-0.436c8.8,-3.008 18.993,-11.46 21.189,-23.791c1.583,-8.888 -0.355,-15.625 -5.226,-20.212c-5.867,-5.444 -15.445,-7.595 -29.69,-7.595l0,0.027Zm-103.846,56.171l9.374,-20.484c2.565,-5.594 5.308,-12.903 7.75,-18.633l0.287,0c0.396,5.73 0.832,12.889 1.514,18.633l2.333,20.484l-21.271,0l0.014,0Zm35.325,-55.45l12.58,96.581l-23.413,0l-2.988,-24.785l-27.561,0l-11.284,24.785l-22.567,0l46.69,-96.581l28.557,0l-0.014,0Zm-452.74,57.069c-20.125,0 -40.769,-13.298 -40.769,-29.195c0,-10.684 10.451,-25.806 32.923,-38.573l47.031,55.518c0,0 -19.075,12.25 -39.2,12.25l0.014,0Zm103.218,-11.991l43.634,52.401l-65.587,0l-13.59,-14.863c-18.297,10.684 -54.358,16.169 -70.554,16.169c-52.257,0 -96.955,-21.11 -96.955,-66.216c0,-45.106 59.584,-82.453 59.584,-82.453c-36.757,-37.361 -22.731,-83.596 -22.731,-83.596l4.707,-17.721l159.405,0c0,0 -15.418,27.63 -37.631,66.733c9.414,-28.405 -16.468,-34.666 -27.179,-34.666c-26.92,0 -38.681,23.982 -38.681,33.877c0,9.895 3.657,17.721 8.364,26.064c4.707,8.343 45.203,48.222 50.429,51.87c5.226,3.648 9.674,8.602 13.33,9.119c11.229,-19.286 9.933,-41.444 9.933,-41.444c0,0 1.569,1.048 49.91,15.639c0,32.856 -26.388,69.088 -26.388,69.088Zm205.126,-147.539l71.877,0l-18.556,18.51l-80.487,0l-46.254,182.736l-68.207,0l45.203,-182.736l-109.494,0l35.802,-67.25l290.839,0l-15.677,15.639l-72.123,0l-9.401,10.426l71.072,0l-12.28,12.25l-72.901,0l-9.414,10.426Z" style="fill:#008037;"/></svg>