<svg version="1.2" xmlns="http://www.w3.org/2000/svg" viewBox="0 0 604 250" width="604" height="250"><style>.a{fill:#1e3378}.b{fill:#e11b22}</style><path fill-rule="evenodd" class="a" d="m397.7 179.5l38-179.5h141.9l-9.4 44.9h-71.1l-4.7 22.4h60.4l-9.5 44.9h-60.4l-4.8 22.4h71.1l-9.5 44.9z"/><path fill-rule="evenodd" class="b" d="m0 179.5c126.3-59.8 297.2-98 453-112.2 42.2-3.8 83.9-6 141.9-6 2.3 0 6.1-0.7 9.1-1.5l-11.7 55.4c-0.7 3-5.7 4.5-9.4 4.5-356.1 0-569.3 59.8-569.3 59.8z"/><path fill-rule="evenodd" class="a" d="m191.2 179.5l38-179.5h68l40.4 81.5 17.2-81.5h68l-38 179.5h-67.9l-39.8-84.5-17.9 84.5z"/><path fill-rule="evenodd" class="a" d="m126.3 104.7l22.1-104.7h68l-26.6 125.7c-8.2 38.9-38.8 53.8-79.3 53.8h-50.1l11.4-53.8h22.7c16.6 0 28.6-6 31.8-21z"/><path class="a" d="m344.1 239.1l1.5-9.5h15.1l1.4-10.1h-15.1l1-7.5h15.6l1.4-10.1h-24.3l-6.4 47.3h25.4l1.4-10.1z"/><path class="a" d="m397.6 201.9h-10.5l-5 8.6q-1.1 2-2.6 4.7-1.2-3.6-1.3-4l-3.1-9.3h-9.1l7.7 23.2-13.7 24.1h10.8l4.4-7.6q1.5-2.7 2.4-4.4c0.4 1.2 0.9 2.7 1.4 4.4l2.5 7.6h9.6l-7.6-22.3z"/><path class="a" d="m421.9 214.4q0-3.9-1.2-6.8c-0.8-2-2-3.4-3.5-4.4-1.4-0.8-3.3-1.3-5.7-1.3h-13l-6.4 47.3h8.7l2.3-17h2.7c2.7 0 4.5-0.1 5.5-0.4q2.7-0.6 4.4-1.7 1.6-1.1 3-3.2c0.9-1.5 1.6-3.3 2.2-5.5q1-3.4 1-7zm-16.1-2.6h3.2c2.5 0 3.1 0.3 3.1 0.4q0.5 0.2 0.8 0.9 0.3 0.8 0.3 2.1 0 2.1-0.8 3.9c-0.5 1.1-1.1 1.8-1.9 2.3-0.5 0.3-1.9 0.7-5.7 0.7h-0.3z"/><path class="a" d="m444.8 232.6q-0.7-1.6-1.4-2.9 3.8-1.3 5.8-4.7c1.6-2.7 2.4-6.1 2.4-10.1q0-4.2-1.2-7.3-1.3-3.2-3.6-4.5c-1.4-0.8-3.3-1.2-5.8-1.2h-14.1l-6.4 47.3h8.6l2.5-18.5h1.3c1.4 0 1.9 0.3 2 0.4 0.6 0.6 1.4 2 2.4 5.3 1.4 5.3 2.5 9.3 3 11.7l0.2 1.1h9.2l-0.4-1.6c-1.7-6.4-3.2-11.4-4.5-15zm-10.6-20.6h5.4c2.1 0 2.6 0.3 2.6 0.3q0.9 0.9 0.9 2.7 0 1.8-0.8 3.4-0.7 1.6-1.9 2.2c-0.5 0.3-1.9 0.7-5.8 0.7h-1.7z"/><path class="a" d="m477.7 229.6l1.4-10.1h-15.1l1-7.5h15.6l1.4-10.1h-24.3l-6.4 47.3h25.4l1.4-10.1h-17l1.5-9.5z"/><path class="a" d="m495.8 211c1.3 0 2.1 0.4 2.8 1.2 0.7 0.9 1.1 2.4 1.2 4.2l0.1 1.3 8.3-0.6v-1.2c-0.2-4.4-1.3-7.9-3.4-10.6q-3.2-4.2-9-4.2c-3.8 0-6.7 1.4-8.7 4.3-2 2.7-3 6.1-3 10.1q0.1 3.4 1 6.1c0.7 1.7 1.6 3.2 2.8 4.4 1.1 1 2.8 2.3 5.1 3.9 2.8 1.9 3.6 2.7 3.9 3q0.8 1 0.8 2.5c0 1.3-0.4 2.3-1.1 3.1-0.6 0.8-1.6 1.2-3.2 1.2-2.5 0-3.3-1-3.7-1.7-0.2-0.5-0.7-1.7-0.8-5.1v-1.3l-8.3 0.6v1.2q-0.1 4.7 1.1 8.4c0.9 2.5 2.3 4.6 4.4 6q3.1 2.2 7.3 2.2c4 0 7.2-1.6 9.5-4.7 2.2-3.1 3.3-6.7 3.3-10.9 0-3.4-0.7-6.3-2.2-8.6-1.1-1.5-3.3-3.4-6.8-5.7-2.6-1.8-3.6-2.7-4-3.2q-0.7-0.9-0.7-2.4c0-1.1 0.3-1.9 0.8-2.6q0.7-0.9 2.5-0.9z"/><path class="a" d="m525.3 220c-2.6-1.7-3.6-2.7-4-3.2q-0.7-0.9-0.7-2.3c0-1.1 0.2-2 0.8-2.6q0.6-0.9 2.5-0.9c1.3 0 2.1 0.4 2.7 1.2 0.7 1 1.2 2.4 1.3 4.2l0.1 1.3 8.3-0.5v-1.3c-0.2-4.4-1.4-7.9-3.4-10.6-2.1-2.8-5.1-4.2-9-4.2-3.8 0-6.8 1.5-8.8 4.3-1.9 2.7-2.9 6.1-2.9 10.1q0 3.5 1 6.1c0.7 1.8 1.6 3.3 2.8 4.4 1.1 1.1 2.8 2.3 5.1 3.9 2.8 1.9 3.6 2.7 3.8 3 0.6 0.7 0.8 1.5 0.8 2.6q0 1.8-1 3.1c-0.6 0.7-1.7 1.1-3.3 1.1-2.4 0-3.2-1-3.6-1.7-0.3-0.5-0.7-1.7-0.8-5.1v-1.3l-8.3 0.6v1.2q-0.1 4.7 1.1 8.4c0.8 2.5 2.3 4.6 4.4 6q3.1 2.2 7.2 2.2c4.1 0 7.3-1.6 9.6-4.7 2.2-3.1 3.3-6.7 3.3-10.9 0-3.4-0.8-6.3-2.3-8.6-1-1.5-3.2-3.4-6.7-5.8z"/></svg>