<?xml version="1.0" encoding="UTF-8" standalone="no"?>
<!DOCTYPE svg PUBLIC "-//W3C//DTD SVG 1.1//EN" "http://www.w3.org/Graphics/SVG/1.1/DTD/svg11.dtd">
<svg width="100%" height="100%" viewBox="0 0 916 390" version="1.1" xmlns="http://www.w3.org/2000/svg" xmlns:xlink="http://www.w3.org/1999/xlink" xml:space="preserve" xmlns:serif="http://www.serif.com/" style="fill-rule:evenodd;clip-rule:evenodd;stroke-linejoin:round;stroke-miterlimit:2;">
    <g transform="matrix(0.999913,0,0,0.998055,-17.128504,-279.964428)">
        <path d="M107.54,280.51L121.97,280.51C126.88,280.82 131.74,281.47 136.45,282.48C160.07,287.54 181.07,300.49 194.87,320.37C196.09,322.13 196.51,322.55 197.59,324.35C198.44,325.76 199.15,327.12 200.02,328.63C218.22,360.18 212.93,407.33 196.94,439C181.84,468.92 170.56,482.45 156.52,507.69C153.15,513.76 150.16,519.3 146.76,525.36C143.28,531.59 138.53,541.96 135.4,549.36C134.65,551.13 133.92,553.12 133.19,554.81C134.57,556.46 160.77,571.95 163.69,572.85L160.74,575.33C159.72,575.93 158.95,576.32 158.02,576.84L141.38,586.42C138.5,588.1 120.13,599.02 118.91,599.02C116.57,599.02 80.83,576.44 74.28,573.84C75.3,572.38 75.91,572.31 77.57,571.35L99.01,558.46C97.72,551.98 92.32,543.43 89.75,537.04C88.27,533.38 86.9,531.65 85.19,528.19C65.5,488.36 29.74,447.27 19.82,402.16C18.32,395.34 17.43,388.49 17.13,381.71L17.13,371.19C18.71,336.24 36.11,304.53 66.71,290.46C78.65,284.97 92.99,281.41 107.56,280.51L107.54,280.51Z" style="fill:rgb(254,254,254);"/>
    </g>
    <g transform="matrix(0.999913,0,0,0.998055,-17.128504,-279.964428)">
        <path d="M569.9,414.05L569.9,392.71L519.31,392.71L519.31,550.59L571.73,550.59L571.73,466.47C571.73,455.9 573.98,448.42 578.3,441.95C580.52,438.62 582.9,436.3 586.55,434.35C594.92,429.89 607.01,429.59 614.35,436.65C619.83,441.92 622.33,451.83 622.33,460.98L622.33,550.59L675.36,550.59L675.36,454.89C675.36,422.56 662.7,400.35 639.31,391.58C619.18,384.04 592.81,388.96 578.26,403.51L569.9,414.05ZM297.42,414.05L297.42,392.71L246.83,392.71L246.83,550.59L299.25,550.59L299.25,468.3C299.25,456.77 301.11,449.74 305.6,442.34C307.54,439.13 310.43,436.45 313.67,434.56C324.66,428.17 342.59,429.73 347.64,446.12C351.29,457.97 349.85,500.4 349.85,515.85L349.85,543.28C349.83,546.27 348.9,550.59 351.68,550.59L402.88,550.59L402.88,453.06C402.88,438.03 399.15,423.31 393.39,413.78C378.9,389.76 349.08,382.32 324.67,391.92C313.05,396.49 309.95,399.51 303.06,406.89C301.23,408.85 299.03,412.88 297.42,414.05ZM854.57,518.9C846.38,518.9 837.01,517.42 833.01,510.59C832.02,508.89 830.79,505.39 830.79,503.05C830.79,482.06 865.04,481.72 885.65,481.72C885.65,493.67 884.09,502.01 878.49,508.7C872.6,515.73 864.13,518.91 854.56,518.91L854.57,518.9ZM790.57,414.05C792.75,417.3 794.03,418.45 796.82,421.21L809.91,435.55C812.3,438.03 814.93,439.94 816.78,442.7C821.88,439.29 820.41,438.56 831.6,432.53C850.68,422.25 883.83,424.69 883.83,447.58L883.83,451.24C859.26,451.24 834.19,453.6 816.51,460.73C796.7,468.72 782.64,481.04 782.64,504.88C782.64,558.84 854.77,565.15 879.59,540.26C881.07,538.77 883.96,534.66 885.66,533.53L885.66,550.6L933.21,550.6L933.21,464.04C933.21,434.41 924.32,402.2 893.67,392.03C870.79,384.44 841.81,386.43 820.35,395.07C812.67,398.16 795.21,407.72 790.57,414.06L790.57,414.05ZM707.67,552.43L707.67,392.71L760.09,392.71L760.09,551.2C760.09,562.26 758.98,572.86 757.2,581.84C755.2,591.9 751.99,598.18 747.18,605.35C732.76,626.87 697.97,629.3 674.14,623.75C674.14,615.03 675.7,606.73 675.97,598.15C676.08,594.69 676.77,589.12 677.09,585.86C677.89,577.64 675.8,580.42 683.29,581.07C692.05,581.83 699.69,581.37 703.22,574.8C706.42,568.85 707.67,561.32 707.67,552.43ZM433.97,548.76C433.97,550.17 434.39,550.59 435.8,550.59L486.39,550.59L486.39,392.71L433.97,392.71L433.97,548.76ZM733.27,371.38C741.72,371.38 750.13,367.59 754.47,363.32C771.27,346.74 762.86,323.65 747.48,316.94C734.93,311.47 721.4,313.45 711.47,323.36C694.14,340.67 707.25,371.38 733.27,371.38ZM430.32,342.12C430.32,365.44 457.57,381.6 480.67,363.82C489.93,356.69 492.91,341.4 487.23,329.71C483.45,321.93 472.94,314.08 463.24,314.08C452.99,314.08 446.89,314.88 438.7,323.07C436.05,325.72 434.66,327.05 432.95,330.73C431.52,333.79 430.32,337.87 430.32,342.12Z" style="fill:rgb(228,30,38);"/>
    </g>
    <g transform="matrix(0.999913,0,0,0.998055,-17.128504,-279.964428)">
        <path d="M41.73,378.09C41.73,340 74.96,306.16 112.73,306.16C135.01,306.16 151.7,312.5 167.04,327.43C192.77,352.48 196.17,392.52 174.99,422.68C168.24,432.29 157.28,441.68 145.91,446.62C134.46,451.59 126.4,453.22 113.34,453.22C75,453.22 41.74,419.48 41.74,381.14L41.74,378.09L41.73,378.09ZM24.49,373.82C24.49,399.2 30.05,416.24 40.51,437.54C46.8,450.34 59.85,471.91 67.65,484.13C76.81,498.48 86.37,514.23 94.51,530.4C98.58,538.49 102.39,546.77 105.82,555.7C107.01,558.79 114.79,583.01 115.08,583.37C131.79,536.01 135.61,528.17 162.95,483.16C182.11,451.61 203.9,422.96 203.9,375.05C203.9,304.39 131.6,273.65 76.01,295.65C60.3,301.87 49.44,310.85 39.91,324.15C30.74,336.94 24.51,357.38 24.51,373.83L24.49,373.82Z" style="fill:rgb(228,30,38);"/>
    </g>
    <g transform="matrix(0.999913,0,0,0.998055,-17.128504,-279.964428)">
        <path d="M79.64,352.48C88.33,351.07 107.62,352.12 117.61,352.12C126.46,352.12 148.44,351.08 155.16,353.35C163.54,356.18 171.48,364.65 170.29,376.64C167.66,403.22 135.09,396.73 113.34,396.73C104.51,396.73 82.4,397.72 75.63,395.67C55.08,389.47 54.05,356.63 79.64,352.48ZM105.64,314.56C72.94,318.8 44.94,350.56 50.77,388.9C55.75,421.68 86.27,449.2 124.77,443.71C157.37,439.07 185.88,408.12 179.98,369.48C174.86,335.94 144.88,309.46 105.64,314.55L105.64,314.56Z"/>
    </g>
    <g transform="matrix(0.999913,0,0,0.998055,-17.128504,-279.964428)">
        <path d="M67.26,626.18L67.8,584.07C70.47,584.9 96.54,600.65 101.4,603.37C105.1,605.44 109.2,607.65 112.57,609.87L112.6,652.87C109.68,652.05 70.35,628.86 67.26,626.18ZM94.31,546.62L74.58,558.16C71.15,560.19 68.25,561.61 64.83,563.64C61.39,565.69 57.92,567.4 54.82,569.48L54.82,634.7C56.95,635.19 60.9,637.86 62.78,638.93C65.58,640.54 68.03,641.86 70.93,643.58L103.17,661.94C108.75,665.06 113.96,668.37 119.44,671.27L167.1,643.96C172.35,640.8 177.92,637.99 182.83,634.7L182.83,569.48L137.96,543.45C137.47,543.97 135.75,548.35 135.31,549.4C134.56,551.17 133.83,553.16 133.1,554.85C134.48,556.5 160.68,571.99 163.6,572.9L160.65,575.38C159.63,575.98 158.86,576.37 157.93,576.89L141.29,586.47C138.41,588.15 120.04,599.07 118.82,599.07C116.48,599.07 80.74,576.49 74.19,573.89C75.21,572.43 75.82,572.36 77.48,571.39L98.92,558.5C98.59,556.83 96.21,548.27 94.32,546.61L94.31,546.62Z"/>
    </g>
    <g transform="matrix(0.999913,0,0,0.998055,-17.128504,-279.964428)">
        <path d="M358.99,588.39C364.13,588.39 368.07,588.35 371.91,593.15C379.51,602.64 374.32,620.09 362.04,620.09C358.62,620.09 357.02,620.23 353.9,618.48C340.15,610.76 345.85,588.39 359,588.39L358.99,588.39ZM345.58,579.86L345.58,572.55L325.47,572.55L325.47,667.03C350.43,667.03 346.84,669.03 346.81,659.11L346.81,629.85C349.54,631.68 354.13,637.77 363.27,637.77C373.7,637.77 380.66,636.59 388.09,627.84C398.87,615.13 398.84,592.56 388.42,580.93C380.32,571.89 374.34,570.72 363.27,570.72C353.53,570.72 348.58,577.86 345.59,579.86L345.58,579.86ZM480.3,585.35L483.35,585.35C490.24,585.35 493.79,590.49 494.32,596.93L468.11,596.93C468.11,590.58 474.08,585.35 480.3,585.35ZM447.38,603.64C447.38,645.91 500.27,645.36 511.39,624.36L496.76,615.22C495.13,616.41 495.92,616.34 493.99,617.94C484,626.21 468.32,619.71 468.11,610.35L513.83,610.35C513.83,597.98 513.84,588.62 504.84,579.72C501.77,576.69 499.99,574.85 495.65,573.06C472.17,563.42 447.39,579.12 447.39,603.64L447.38,603.64ZM269.39,602.42C268.93,604.13 267.6,605.49 266.49,606.83L245.04,634.85C244.61,635.83 244.04,636.55 246.24,636.55C273.99,636.55 266.34,639.26 275.33,627.24C276.84,625.22 281.68,619 282.21,617.05C284.6,618.65 290.62,628.44 293.09,631.77C293.89,632.85 294.05,633.05 294.86,634.27C295.78,635.65 295.73,636.56 297.45,636.56C321.02,636.56 323.16,638.23 319.17,633.17C317.84,631.48 316.91,630.19 315.74,628.63C312.25,623.98 298.1,605.95 296.23,602.42C296.68,601.9 297.09,601.43 297.62,600.76L318.78,572.55L294.4,572.55C293.84,574.65 283.71,588.35 282.82,589.01C281.24,586.02 279.39,583.85 277.46,580.96C275.43,577.92 273.58,575.84 271.85,572.55L246.86,572.55C250.38,577.8 254.21,582.37 258.1,587.52L269.41,602.42L269.39,602.42ZM577.22,589.01C577.22,596.27 576.84,599.13 582.85,604.72C585.84,607.5 589.37,608.8 593.93,610.1C597.49,611.11 604.24,612.27 606.37,614.14C612.86,619.84 601.1,627.65 588.18,618.29C586.88,617.35 586.45,616.72 585.15,615.84C584.55,616.24 574.1,627.23 573.57,628.03C580.71,638.69 614.47,644.42 625.28,627.93C631.19,618.92 630.02,605.5 616.24,599.38C608.03,595.73 596.73,595.91 596.73,590.85C596.73,584.25 606.96,585.28 612.4,587.99C615.37,589.47 615.28,590 617.46,591.46C620.64,589.33 626.85,582.55 629.04,579.27C628.23,578.16 625.67,576.35 624.3,575.47C606.5,564.19 577.22,572.29 577.22,589.02L577.22,589.01ZM519.92,591.45C519.92,614.45 551.01,607.73 551.01,617.66C551.01,624.86 538.72,622.86 534.41,620.24L528.45,615.84L516.26,628.64C518.83,630 519.2,630.91 521.61,632.43C536.35,641.71 571.73,642.69 571.73,615.23C571.73,611.78 569.72,607.5 567.94,605.61C565.46,602.97 563.5,601.22 559.96,599.57C556.25,597.84 553.25,597.39 549.16,596.34C541.74,594.45 540.03,594.18 540.03,589.62C540.03,586.59 545.07,585.96 547.95,585.96C554.31,585.96 557.03,588.95 560.75,591.45L572.33,579.26C570.55,578.07 569.53,576.82 567.44,575.62C565.53,574.52 564.01,573.76 561.6,572.93C547.44,568 530.05,569.54 522.58,581.94C521.03,584.51 519.91,588.86 519.91,591.46L519.92,591.45ZM426.05,581.09C433.33,572.72 432.45,570.73 447.99,570.73C447.99,577.87 447.38,582.69 447.38,589.63C440.77,589.63 433.74,588.62 429.71,595.12C427.16,599.23 427.26,601.39 427.27,607.92L427.29,631.1C427.41,638.15 429.71,636.57 407.15,636.57C405.75,636.57 405.32,636.15 405.32,634.74L405.32,572.56L426.05,572.56L426.05,581.09Z"/>
    </g>
    <g transform="matrix(0.999913,0,0,0.998055,-17.128504,-279.964428)">
        <path d="M67.26,626.18C70.35,628.87 109.68,652.05 112.6,652.87L112.57,609.87C109.21,607.65 105.1,605.43 101.4,603.37C96.53,600.65 70.47,584.9 67.8,584.07L67.26,626.18Z" style="fill:rgb(254,254,254);"/>
    </g>
    <g transform="matrix(0.999913,0,0,0.998055,-17.128504,-279.964428)">
        <path d="M146.87,371.38C142.73,376.57 135,370.72 138.97,365.33C142.54,360.48 150.82,366.43 146.87,371.38ZM139.17,361.87C122.68,366.26 128.93,390.62 145.31,386.85C161.92,383.02 155.56,357.5 139.17,361.87Z"/>
    </g>
    <g transform="matrix(0.999913,0,0,0.998055,-17.128504,-279.964428)">
        <path d="M85.21,364.43C91.28,361.14 95.42,371.14 89.1,373.38C82.41,375.75 80.23,367.13 85.21,364.43ZM84.3,362.1C68.31,365.06 71.87,390.53 89.5,387.24C104.87,384.37 101.77,358.86 84.3,362.1Z"/>
    </g>
</svg>
