<?xml version="1.0" encoding="UTF-8" standalone="no"?>
<!DOCTYPE svg PUBLIC "-//W3C//DTD SVG 1.1//EN" "http://www.w3.org/Graphics/SVG/1.1/DTD/svg11.dtd">
<svg width="100%" height="100%" viewBox="0 0 1137 350" version="1.1" xmlns="http://www.w3.org/2000/svg" xmlns:xlink="http://www.w3.org/1999/xlink" xml:space="preserve" xmlns:serif="http://www.serif.com/" style="fill-rule:evenodd;clip-rule:evenodd;stroke-linejoin:round;stroke-miterlimit:2;">
    <g transform="matrix(1.241199,0,0,1.237886,-21.24932,-413.392162)">
        <path d="M218.59,392.71C218.42,392.53 218.28,392.31 218.1,392.12L170,344.01C167.1,341.11 162.42,341.11 159.53,344.01C156.61,346.91 156.61,351.61 159.53,354.48L180.02,375.03L180.02,388.11L165.19,388.11L165.19,402.93L201.4,402.93C212.31,402.93 221.2,411.8 221.2,422.74L221.2,516.37C221.2,519.62 220.4,522.65 218.99,525.37L92.87,399.23C89.97,396.33 85.29,396.33 82.39,399.23C79.48,402.12 79.48,406.81 82.39,409.7L207.8,535.11C205.78,535.79 203.63,536.18 201.4,536.18L107.76,536.18C96.84,536.18 87.93,527.28 87.93,516.37L87.93,482.05L73.11,482.05L73.11,518.75C73.11,519.43 73.23,520.1 73.42,520.76C73.63,522.39 73.96,524.01 74.42,525.57L74.99,532.63L80.74,538.04C80.74,538.04 80.81,538.1 80.85,538.14C87.21,545.98 96.9,551 107.77,551L201.39,551C210.21,551 218.25,547.65 224.38,542.17C224.56,542.02 224.75,541.9 224.91,541.73L225.05,541.54C231.79,535.22 236.03,526.28 236.03,516.35L236.03,422.72C236.03,409.88 228.96,398.69 218.57,392.69" style="fill:rgb(255,176,3);"/>
    </g>
    <g transform="matrix(1.241199,0,0,1.237886,-21.24932,-413.392162)">
        <path d="M165.2,388.1L107.77,388.1C100.41,388.1 93.61,390.42 88,394.35L44.01,350.36C46.41,349.35 49.02,348.78 51.77,348.78L145.39,348.78C156.31,348.78 165.2,357.67 165.2,368.59L165.2,388.1ZM165.2,462.22C165.2,473.14 156.32,482.04 145.39,482.04L87.94,482.04L87.94,422.74C87.94,417.76 89.82,413.21 92.84,409.72L92.87,409.7C92.87,409.7 92.89,409.69 92.89,409.65C96.54,405.53 101.82,402.92 107.77,402.92L165.2,402.92L165.2,462.22ZM73.12,422.74L73.12,482.04L51.76,482.04C40.84,482.04 31.96,473.15 31.96,462.22L31.96,368.59C31.96,365.85 32.51,363.22 33.53,360.84L77.91,405.23C74.89,410.35 73.12,416.34 73.12,422.74ZM145.39,333.96L51.77,333.96C42.86,333.96 34.78,337.37 28.63,342.92C28.13,343.21 27.62,343.56 27.17,344.01C26.73,344.46 26.38,344.94 26.07,345.47C20.55,351.61 17.12,359.71 17.12,368.59L17.12,462.22C17.12,471.13 20.55,479.22 26.07,485.37C26.43,485.95 26.79,486.47 27.31,486.95L75.63,533.26L75.63,533.19C76.95,534.35 78.65,535.07 80.55,535.07C84.63,535.07 87.96,531.78 87.96,527.68L87.96,496.86L145.4,496.86C164.5,496.86 180.03,481.31 180.03,462.21L180.03,368.58C180.03,349.48 164.49,333.95 145.4,333.95L145.39,333.96Z" style="fill:rgb(255,67,79);"/>
    </g>
    <g transform="matrix(1.241199,0,0,1.237886,-21.24932,-413.392162)">
        <path d="M326.19,590.34C331.13,590.34 334.21,587.57 334.21,583.7L334.21,583.59C334.21,579.24 331.07,576.95 326.19,576.95L318.59,576.95L318.59,590.34L326.19,590.34ZM312.05,571L326.72,571C335.43,571 340.86,575.94 340.86,583.43L340.86,583.54C340.86,591.87 334.16,596.23 325.98,596.23L318.59,596.23L318.59,608.18L312.06,608.18L312.06,570.99L312.05,571ZM363.64,598.1L363.64,596.18C361.99,595.54 359.82,595.07 357.27,595.07C353.13,595.07 350.68,596.82 350.68,599.75L350.68,599.86C350.68,602.57 353.07,604.11 356.15,604.11C360.4,604.11 363.64,601.67 363.64,598.11M344.41,600.12L344.41,600.02C344.41,593.96 349.14,590.98 355.99,590.98C359.12,590.98 361.36,591.46 363.53,592.15L363.53,591.46C363.53,587.47 361.09,585.35 356.57,585.35C353.43,585.35 351.1,586.04 348.54,587.1L346.84,582.05C349.92,580.67 352.95,579.77 357.41,579.77C361.61,579.77 364.74,580.88 366.71,582.9C368.78,584.92 369.74,587.89 369.74,591.56L369.74,608.18L363.47,608.18L363.47,604.67C361.56,606.96 358.64,608.76 354.33,608.76C349.07,608.76 344.39,605.73 344.39,600.1M377.44,569.4L383.87,569.4L383.87,592.56L395.51,580.13L403.32,580.13L392.16,591.55L403.68,608.18L396.14,608.18L387.86,596.01L383.87,600.15L383.87,608.17L377.44,608.17L377.44,569.38L377.44,569.4ZM426.32,592.19C425.9,588.05 423.45,584.8 419.2,584.8C415.28,584.8 412.51,587.83 411.93,592.19L426.33,592.19L426.32,592.19ZM405.54,594.26L405.54,594.15C405.54,586.13 411.23,579.54 419.25,579.54C428.18,579.54 432.69,586.55 432.69,594.63C432.69,595.21 432.64,595.79 432.59,596.44L411.97,596.44C412.66,601 415.9,603.55 420.04,603.55C423.18,603.55 425.41,602.39 427.64,600.2L431.41,603.55C428.75,606.74 425.09,608.81 419.93,608.81C411.8,608.81 405.53,602.92 405.53,594.25L405.54,594.26ZM440.5,600.42L440.5,585.65L436.94,585.65L436.94,580.13L440.5,580.13L440.5,572.42L446.93,572.42L446.93,580.13L454.47,580.13L454.47,585.65L446.93,585.65L446.93,599.41C446.93,601.91 448.2,602.92 450.38,602.92C451.82,602.92 453.09,602.6 454.37,601.96L454.37,607.22C452.78,608.12 451.02,608.66 448.58,608.66C443.85,608.66 440.51,606.59 440.51,600.43M461.01,580.14L467.44,580.14L467.44,584.39C469.25,581.9 471.69,579.56 476,579.56C480.04,579.56 482.9,581.53 484.4,584.5C486.63,581.53 489.6,579.56 493.85,579.56C499.96,579.56 503.68,583.44 503.68,590.29L503.68,608.2L497.25,608.2L497.25,592.26C497.25,587.79 495.18,585.41 491.57,585.41C487.96,585.41 485.56,587.85 485.56,592.37L485.56,608.2L479.14,608.2L479.14,592.22C479.14,587.87 477.01,585.42 473.46,585.42C469.91,585.42 467.45,588.08 467.45,592.38L467.45,608.21L461.02,608.21L461.02,580.16L461.01,580.14ZM511.17,597.99L511.17,580.14L517.6,580.14L517.6,596.08C517.6,600.43 519.78,602.88 523.61,602.88C527.44,602.88 529.93,600.34 529.93,595.98L529.93,580.15L536.41,580.15L536.41,608.2L529.93,608.2L529.93,603.85C528.12,606.51 525.52,608.79 521.17,608.79C514.84,608.79 511.18,604.54 511.18,598.01M558.63,602.79L562.56,598.12C566.12,601.2 569.73,602.95 574.3,602.95C578.34,602.95 580.89,601.03 580.89,598.27L580.89,598.16C580.89,595.5 579.4,594.07 572.5,592.47C564.58,590.56 560.12,588.22 560.12,581.37L560.12,581.26C560.12,574.89 565.44,570.48 572.82,570.48C578.24,570.48 582.55,572.13 586.32,575.15L582.81,580.09C579.46,577.6 576.11,576.27 572.71,576.27C568.89,576.27 566.66,578.24 566.66,580.68L566.66,580.79C566.66,583.66 568.36,584.93 575.53,586.63C583.39,588.54 587.43,591.36 587.43,597.52L587.43,597.63C587.43,604.59 581.96,608.74 574.15,608.74C568.47,608.74 563.1,606.77 558.64,602.79M613.63,592.22C613.21,588.08 610.76,584.83 606.51,584.83C602.58,584.83 599.81,587.86 599.23,592.22L613.63,592.22ZM592.85,594.29L592.85,594.18C592.85,586.16 598.54,579.57 606.56,579.57C615.48,579.57 620,586.58 620,594.66C620,595.24 619.94,595.82 619.89,596.47L599.27,596.47C599.96,601.03 603.21,603.58 607.34,603.58C610.48,603.58 612.71,602.42 614.94,600.23L618.71,603.58C616.05,606.77 612.39,608.84 607.23,608.84C599.1,608.84 592.83,602.95 592.83,594.28L592.85,594.29ZM626.48,569.43L632.91,569.43L632.91,584.47C634.72,581.87 637.32,579.58 641.67,579.58C647.99,579.58 651.66,583.83 651.66,590.31L651.66,608.22L645.24,608.22L645.24,592.28C645.24,587.93 643.06,585.43 639.23,585.43C635.4,585.43 632.91,588.03 632.91,592.39L632.91,608.22L626.48,608.22L626.48,569.43ZM676.8,598.12L676.8,596.2C675.15,595.56 672.97,595.09 670.42,595.09C666.28,595.09 663.83,596.84 663.83,599.77L663.83,599.88C663.83,602.59 666.22,604.13 669.3,604.13C673.55,604.13 676.79,601.69 676.79,598.13M657.56,600.14L657.56,600.04C657.56,593.98 662.29,591 669.14,591C672.27,591 674.51,591.48 676.68,592.17L676.68,591.48C676.68,587.49 674.24,585.37 669.72,585.37C666.58,585.37 664.24,586.06 661.69,587.12L659.99,582.07C663.07,580.69 666.1,579.79 670.56,579.79C674.76,579.79 677.89,580.9 679.86,582.92C681.93,584.94 682.89,587.91 682.89,591.58L682.89,608.2L676.62,608.2L676.62,604.69C674.7,606.98 671.79,608.78 667.48,608.78C662.22,608.78 657.54,605.75 657.54,600.12M690.59,580.15L697.02,580.15L697.02,586.47C698.77,582.27 702.01,579.4 706.96,579.62L706.96,586.42L706.59,586.42C700.96,586.42 697.03,590.09 697.03,597.53L697.03,608.21L690.6,608.21L690.6,580.16L690.59,580.15ZM712.9,608.2L719.34,608.2L719.34,580.15L712.91,580.15L712.91,608.2L712.9,608.2ZM712.64,575.85L719.54,575.85L719.54,569.74L712.64,569.74L712.64,575.85ZM741.91,602.78L745.85,598.11C749.41,601.19 753.02,602.94 757.59,602.94C761.63,602.94 764.18,601.02 764.18,598.26L764.18,598.15C764.18,595.49 762.69,594.06 755.78,592.46C747.86,590.55 743.4,588.21 743.4,581.36L743.4,581.25C743.4,574.88 748.72,570.47 756.1,570.47C761.52,570.47 765.83,572.12 769.6,575.14L766.09,580.08C762.74,577.59 759.39,576.26 756,576.26C752.17,576.26 749.94,578.23 749.94,580.67L749.94,580.78C749.94,583.65 751.64,584.92 758.81,586.62C766.67,588.53 770.71,591.35 770.71,597.51L770.71,597.62C770.71,604.58 765.24,608.73 757.43,608.73C751.75,608.73 746.38,606.76 741.92,602.78M795.05,598.11L795.05,596.19C793.4,595.55 791.22,595.08 788.67,595.08C784.53,595.08 782.08,596.83 782.08,599.76L782.08,599.87C782.08,602.58 784.47,604.12 787.55,604.12C791.8,604.12 795.04,601.68 795.04,598.12M775.8,600.13L775.8,600.03C775.8,593.97 780.53,590.99 787.39,590.99C790.52,590.99 792.76,591.47 794.93,592.16L794.93,591.47C794.93,587.48 792.49,585.36 787.97,585.36C784.84,585.36 782.5,586.05 779.95,587.11L778.25,582.06C781.33,580.68 784.36,579.78 788.82,579.78C793.02,579.78 796.15,580.89 798.12,582.91C800.19,584.93 801.15,587.9 801.15,591.57L801.15,608.19L794.88,608.19L794.88,604.68C792.97,606.97 790.05,608.77 785.75,608.77C780.49,608.77 775.81,605.74 775.81,600.11M808.86,580.14L815.29,580.14L815.29,584.39C817.09,581.9 819.54,579.56 823.84,579.56C827.88,579.56 830.75,581.53 832.24,584.5C834.47,581.53 837.44,579.56 841.69,579.56C847.8,579.56 851.52,583.44 851.52,590.29L851.52,608.2L845.09,608.2L845.09,592.26C845.09,587.79 843.01,585.41 839.4,585.41C835.79,585.41 833.39,587.85 833.39,592.37L833.39,608.2L826.97,608.2L826.97,592.22C826.97,587.87 824.84,585.42 821.28,585.42C817.72,585.42 815.28,588.08 815.28,592.38L815.28,608.21L808.85,608.21L808.85,580.16L808.86,580.14ZM881.81,594.22L881.81,594.1C881.81,588.69 878.15,585.13 873.79,585.13C869.43,585.13 865.61,588.74 865.61,594.11L865.61,594.22C865.61,599.59 869.44,603.2 873.79,603.2C878.14,603.2 881.81,599.74 881.81,594.22ZM859.34,580.13L865.77,580.13L865.77,584.8C867.84,581.88 870.76,579.54 875.33,579.54C881.92,579.54 888.35,584.75 888.35,594.1L888.35,594.21C888.35,603.51 881.97,608.77 875.33,608.77C870.65,608.77 867.73,606.43 865.77,603.83L865.77,616.69L859.34,616.69L859.34,580.13ZM912.36,598.09L912.36,596.17C910.71,595.53 908.53,595.06 905.98,595.06C901.84,595.06 899.39,596.81 899.39,599.74L899.39,599.85C899.39,602.56 901.78,604.1 904.86,604.1C909.11,604.1 912.35,601.66 912.35,598.1M893.11,600.11L893.11,600.01C893.11,593.95 897.84,590.97 904.7,590.97C907.83,590.97 910.07,591.45 912.24,592.14L912.24,591.45C912.24,587.46 909.8,585.34 905.28,585.34C902.15,585.34 899.81,586.03 897.26,587.09L895.56,582.04C898.64,580.66 901.67,579.76 906.13,579.76C910.33,579.76 913.46,580.87 915.43,582.89C917.5,584.91 918.46,587.88 918.46,591.55L918.46,608.17L912.19,608.17L912.19,604.66C910.28,606.95 907.36,608.75 903.05,608.75C897.79,608.75 893.11,605.72 893.11,600.09M926.53,608.17L932.96,608.17L932.96,580.12L926.53,580.12L926.53,608.17ZM926.26,575.82L933.17,575.82L933.17,569.71L926.26,569.71L926.26,575.82ZM368.57,427.07C368.57,415.51 361.75,408.69 349.98,408.69C343.73,408.69 337.67,409.46 331.59,410.96L331.59,465.98C336.91,470.33 343.18,472.61 349.98,472.61C361.75,472.61 368.57,465.98 368.57,454.21L368.57,427.07ZM312.05,407.17C312.05,401.86 315.46,397.12 320.41,395.6C329.89,392.56 339.75,390.68 349.98,390.68C361.16,390.68 370.66,394.28 377.5,401.31C384.31,408.13 388.1,417.6 388.1,428.61L388.1,452.5C388.1,463.7 384.51,473.57 377.68,480.39C370.85,487.41 362.51,490.65 351.32,490.65C345.07,490.65 337.47,488.37 331.59,485.72L331.59,521.2C331.59,526.71 327.24,531.06 321.94,531.06C316.64,531.06 312.06,526.71 312.06,521.2L312.06,407.18L312.05,407.17ZM460.97,447.57L441.44,447.57C424.92,447.57 423.98,456.48 423.98,459.73C423.98,462.98 424.91,472.62 441.44,472.62C447.89,472.62 454.89,471.67 460.97,470.14L460.97,447.57ZM480.51,474.14C480.51,479.43 477.08,483.98 472.16,485.71C462.86,488.93 452.06,490.64 441.44,490.64C429.86,490.64 420.74,487.81 414.3,482.29C407.86,476.78 404.45,469.02 404.45,459.73C404.45,450.44 407.87,443.23 414.31,437.91C420.76,432.42 429.87,429.56 441.45,429.56L460.98,429.56L460.98,422.92C460.98,414.95 455.09,408.7 445.23,408.7C436.31,408.7 431.38,409.82 424.74,413.81C423.24,414.77 421.14,415.51 419.42,415.51C414.31,415.51 410.14,411.72 410.14,407C410.14,403.58 411.67,400.16 414.89,398.26C425.14,392.38 434.03,390.68 447.69,390.68C468.93,390.68 480.52,406.04 480.52,422.92L480.52,474.14L480.51,474.14ZM534,456.86L513.88,486.46C512,489.12 508.97,490.64 505.94,490.64C500.83,490.64 496.08,486.28 496.08,480.78C496.08,478.89 496.63,476.99 497.78,475.27L522.62,440.18L498.33,406.04C497.21,404.32 496.63,402.44 496.63,400.53C496.63,395.41 501,390.67 506.5,390.67C509.54,390.67 512.59,392.2 514.46,394.84L534,423.5L553.54,394.84C555.45,392 558.67,390.67 561.71,390.67C567.01,390.67 571.38,395.04 571.38,400.53C571.38,402.45 570.81,404.32 569.67,406.04L545.39,440.18L570.25,475.27C571.57,476.98 572.14,478.88 572.14,480.78C572.14,486.07 567.59,490.65 562.09,490.65C559.05,490.65 556.02,489.33 554.13,486.47L534.01,456.87L534,456.86ZM641.55,431.83C641.55,416.1 635.1,408.7 622.97,408.7C610.84,408.7 604.58,415.89 604.58,431.83L641.55,431.83ZM604.59,449.87C604.59,457.65 605.89,462.76 608.37,466.17C611.59,470.34 616.51,472.62 622.98,472.62C630.18,472.62 637.02,470.53 643.46,467.7C644.78,467.13 646.1,466.74 647.44,466.74C652.18,466.74 656.73,470.74 656.73,475.67C656.73,479.24 655.21,482.47 651.79,484.19C642.7,488.56 633.04,490.65 622.98,490.65C611.95,490.65 602.49,487.05 595.45,480.02C588.64,473.17 585.02,463.7 585.02,452.5L585.02,428.6C585.02,417.6 588.63,408.13 595.45,401.3C602.49,394.28 611.95,390.67 622.98,390.67C634.01,390.67 643.66,394.28 650.48,401.3C657.3,408.12 661.09,417.59 661.09,428.6L661.09,437.53C661.09,444.36 655.59,449.86 648.77,449.86L604.58,449.86L604.59,449.87ZM682.54,363.73C682.54,358.23 686.91,353.87 692.41,353.87C697.91,353.87 702.08,358.22 702.08,363.73L702.08,480.78C702.08,486.28 697.71,490.65 692.41,490.65C687.11,490.65 682.54,486.28 682.54,480.78L682.54,363.73Z" style="fill:rgb(95,81,161);"/>
    </g>
</svg>
