<?xml version="1.0" encoding="UTF-8" standalone="no"?>
<!DOCTYPE svg PUBLIC "-//W3C//DTD SVG 1.1//EN" "http://www.w3.org/Graphics/SVG/1.1/DTD/svg11.dtd">
<svg width="100%" height="100%" viewBox="0 0 901 680" version="1.1" xmlns="http://www.w3.org/2000/svg" xmlns:xlink="http://www.w3.org/1999/xlink" xml:space="preserve" xmlns:serif="http://www.serif.com/" style="fill-rule:evenodd;clip-rule:evenodd;stroke-linejoin:round;stroke-miterlimit:2;">
    <g transform="matrix(1,0,0,1,-23.25,-135.67)">
        <path d="M82.49,724.62L123.57,724.62L126.43,710.55L70.49,710.55L53.21,795.72L109.15,795.72L112,781.65L70.92,781.65L75.35,759.8L110.64,759.8L113.5,745.73L78.21,745.73L82.49,724.62ZM155.11,795.72L146.19,774.24L129.58,795.72L114.15,795.72L141.29,762.64L128.31,731.54L143.74,731.54L151.81,751.04L167,731.54L182.32,731.54L156.46,762.27L170.44,795.72L155.11,795.72ZM190.6,731.53L173.68,814.97L187.75,814.97L192.98,789.17C195.8,794.27 200.73,796.82 207.77,796.82C212.23,796.82 216.44,795.67 220.39,793.36C224.34,791.05 227.77,787.66 230.68,783.18C233.59,778.7 235.68,773.37 236.93,767.2L238.56,759.18C240.45,749.88 239.81,742.77 236.65,737.83C233.49,732.89 228.39,730.42 221.36,730.42C214.33,730.42 208.39,733.22 202.86,738.81L204.34,731.53L190.6,731.53ZM217.29,778.99C214.61,781.75 211.27,783.12 207.26,783.12C203.25,783.12 200.35,781.74 198.57,778.99C196.79,776.23 196.37,772.51 197.32,767.82L198.97,759.67C199.97,754.73 201.89,750.89 204.72,748.13C207.55,745.37 210.97,744 214.98,744C223.38,744 226.5,749.31 224.35,759.92L223,766.59C221.88,772.1 219.98,776.24 217.31,778.99L217.29,778.99ZM255.4,731.53L242.38,795.72L256.45,795.72L263.66,760.17C264.75,754.82 266.8,750.73 269.84,747.89C272.87,745.05 276.62,743.63 281.09,743.63C284.11,743.63 286.8,744.16 289.16,745.23L292.11,730.67C290.66,730.34 288.84,730.17 286.65,730.17C283.09,730.17 279.68,730.89 276.39,732.33C273.11,733.77 270.2,735.93 267.64,738.81L269.12,731.53L255.39,731.53L255.4,731.53ZM303.53,767.82L303.48,768.07C301.39,778.36 305.19,783.5 314.87,783.5C318.12,783.5 320.92,782.84 323.27,781.53C325.62,780.21 327.19,778.36 327.97,775.98L328.16,775.61L341.89,775.61L341.74,776.35C340.11,782.52 336.59,787.48 331.18,791.22C325.77,794.96 319.24,796.84 311.6,796.84C302.9,796.84 296.6,794.25 292.69,789.06C288.79,783.88 287.85,776.31 289.86,766.35L290.99,760.79C292.98,751 296.92,743.49 302.82,738.26C308.72,733.03 315.91,730.42 324.38,730.42C332.85,730.42 338.98,733.01 342.77,738.2C346.56,743.38 347.48,750.79 345.52,760.42L344.02,767.83L303.51,767.83L303.53,767.82ZM305.66,757.33L332.1,757.33L332.28,756.46C333.15,752.18 332.61,748.95 330.67,746.77C328.73,744.59 325.75,743.5 321.75,743.5C313.43,743.5 308.07,748.11 305.67,757.32L305.66,757.33ZM355.32,791.09C359.06,794.67 364.94,796.46 372.96,796.46C380.98,796.46 387.94,794.69 393.39,791.15C398.83,787.61 402.23,782.51 403.59,775.85C404.68,770.5 403.9,766.28 401.28,763.2C398.65,760.11 394.02,758.16 387.38,757.34L378.21,756.11C375.25,755.78 373.24,755.08 372.17,754.01C371.1,752.94 370.75,751.5 371.12,749.69C371.57,747.47 372.84,745.76 374.94,744.57C377.04,743.38 380.01,742.78 383.87,742.78C387.96,742.78 390.89,743.44 392.66,744.75C394.44,746.07 395.07,747.96 394.57,750.43L394.49,750.8L407.54,750.8L407.64,750.31C408.88,744.22 407.61,739.45 403.85,735.99C400.09,732.53 394.27,730.81 386.4,730.81C378.53,730.81 372.4,732.54 367.31,735.99C362.22,739.44 359.03,744.34 357.75,750.68C356.65,756.11 357.37,760.29 359.92,763.21C362.47,766.13 366.98,768.04 373.45,768.95L381.96,770.06C385.21,770.47 387.46,771.21 388.72,772.28C389.98,773.35 390.41,774.87 390.01,776.85C389.53,779.24 388.12,781.05 385.79,782.28C383.46,783.52 380.29,784.13 376.28,784.13C371.97,784.13 368.86,783.39 366.97,781.91C365.08,780.43 364.39,778.41 364.91,775.86L364.96,775.61L351.8,775.61L351.72,775.98C350.4,782.48 351.61,787.52 355.35,791.1L355.32,791.09ZM415.01,791.09C418.75,794.67 424.63,796.46 432.64,796.46C440.65,796.46 447.62,794.69 453.07,791.15C458.51,787.61 461.92,782.51 463.27,775.85C464.36,770.5 463.58,766.28 460.96,763.2C458.33,760.11 453.7,758.16 447.06,757.34L437.89,756.11C434.93,755.78 432.92,755.08 431.85,754.01C430.78,752.94 430.43,751.5 430.8,749.69C431.25,747.47 432.52,745.76 434.62,744.57C436.72,743.38 439.69,742.78 443.55,742.78C447.64,742.78 450.57,743.44 452.34,744.75C454.11,746.07 454.75,747.96 454.25,750.43L454.18,750.8L467.23,750.8L467.33,750.31C468.57,744.22 467.3,739.45 463.54,735.99C459.78,732.53 453.96,730.81 446.1,730.81C438.24,730.81 432.09,732.54 427.01,735.99C421.93,739.44 418.73,744.34 417.45,750.68C416.35,756.11 417.07,760.29 419.62,763.21C422.17,766.13 426.68,768.04 433.15,768.95L441.66,770.06C444.91,770.47 447.16,771.21 448.42,772.28C449.68,773.35 450.11,774.87 449.7,776.85C449.22,779.24 447.81,781.05 445.48,782.28C443.15,783.52 439.98,784.13 435.97,784.13C431.66,784.13 428.55,783.39 426.66,781.91C424.77,780.43 424.08,778.41 424.6,775.86L424.65,775.61L411.49,775.61L411.41,775.98C410.09,782.48 411.3,787.52 415.04,791.1L415.01,791.09ZM505.51,787.7C510.11,793.95 517.66,797.08 528.18,797.08C537.86,797.08 546.07,794.49 552.79,789.3C559.52,784.12 563.83,776.83 565.73,767.45L565.85,766.83L551.1,766.83L550.98,767.45C550.03,772.14 547.82,775.82 544.37,778.5C540.91,781.18 536.58,782.51 531.36,782.51C525.16,782.51 520.89,780.62 518.55,776.83C516.22,773.05 515.84,767.24 517.43,759.43L519.91,747.21C521.56,739.06 524.32,733.01 528.19,729.07C532.06,725.12 537.09,723.15 543.29,723.15C548.51,723.15 552.32,724.53 554.71,727.28C557.1,730.04 557.81,733.8 556.85,738.57L556.75,739.06L571.62,739.06L571.82,738.07C573.67,728.94 572.27,721.8 567.6,716.65C562.93,711.51 555.8,708.94 546.19,708.94C535.68,708.94 526.83,712.07 519.66,718.32C512.49,724.57 507.65,733.91 505.13,746.34L502.43,759.67C499.91,772.1 500.95,781.44 505.54,787.69L505.51,787.7ZM578.89,789.3C582.64,794.32 588.71,796.83 597.11,796.83C605.51,796.83 612.47,794.32 618.21,789.3C623.96,784.28 627.81,776.96 629.76,767.33L631.31,759.68C633.23,750.22 632.33,742.98 628.62,737.96C624.91,732.94 618.89,730.43 610.57,730.43C602.25,730.43 595.09,732.92 589.31,737.9C583.53,742.88 579.68,750.14 577.74,759.69L576.19,767.34C574.24,776.97 575.13,784.29 578.88,789.31L578.89,789.3ZM615.82,767.21C613.67,777.83 608.35,783.13 599.88,783.13C591.41,783.13 588.02,777.82 590.17,767.21L591.65,759.93C593.8,749.31 599.19,744.01 607.82,744.01C611.9,744.01 614.78,745.31 616.45,747.9C618.12,750.49 618.4,754.5 617.3,759.94L615.82,767.22L615.82,767.21ZM643.08,789.74C646.55,794.47 652.63,796.84 661.33,796.84C670.03,796.84 677.07,794.49 682.45,789.8C687.83,785.11 691.46,778.12 693.35,768.82L700.91,731.54L686.84,731.54L679.43,768.08C678.41,773.1 676.7,776.86 674.3,779.37C671.9,781.88 668.51,783.13 664.12,783.13C659.73,783.13 656.95,781.86 655.54,779.3C654.13,776.75 653.92,773 654.92,768.07L662.33,731.53L648.26,731.53L640.7,768.81C638.83,778.03 639.63,785 643.09,789.73L643.08,789.74ZM713.16,731.54L726.89,731.54L725.41,738.82C727.96,735.94 730.88,733.78 734.16,732.34C737.44,730.9 740.86,730.18 744.41,730.18C746.6,730.18 748.42,730.35 749.87,730.68L746.92,745.24C744.57,744.17 741.88,743.64 738.85,743.64C734.39,743.64 730.64,745.06 727.6,747.9C724.57,750.74 722.51,754.83 721.42,760.18L714.21,795.73L700.14,795.73L713.16,731.54ZM762.77,710.19L760.29,722.41L774.25,722.41L776.73,710.19L762.77,710.19ZM758.44,731.54L745.42,795.73L759.38,795.73L772.4,731.54L758.44,731.54ZM790.91,767.83L831.42,767.83L832.92,760.42C834.87,750.79 833.95,743.39 830.16,738.2C826.37,733.02 820.24,730.42 811.77,730.42C803.3,730.42 796.11,733.03 790.21,738.26C784.31,743.49 780.36,751 778.38,760.79L777.25,766.35C775.23,776.31 776.17,783.88 780.08,789.06C783.98,794.24 790.29,796.84 798.98,796.84C806.62,796.84 813.15,794.97 818.56,791.22C823.97,787.48 827.49,782.52 829.12,776.35L829.27,775.61L815.54,775.61L815.35,775.98C814.56,778.37 813,780.22 810.65,781.53C808.3,782.85 805.5,783.5 802.25,783.5C792.57,783.5 788.77,778.36 790.85,768.07L790.9,767.82L790.91,767.83ZM793.04,757.34C795.44,748.12 800.8,743.52 809.12,743.52C813.13,743.52 816.1,744.61 818.04,746.79C819.98,748.97 820.52,752.2 819.65,756.48L819.47,757.35L793.03,757.35L793.04,757.34ZM850.02,731.54L837,795.73L851.07,795.73L858.28,760.18C859.37,754.83 861.42,750.74 864.46,747.9C867.49,745.06 871.24,743.64 875.71,743.64C878.74,743.64 881.43,744.17 883.78,745.24L886.73,730.68C885.28,730.35 883.46,730.18 881.27,730.18C877.71,730.18 874.3,730.9 871.02,732.34C867.74,733.78 864.82,735.94 862.27,738.82L863.75,731.54L850.02,731.54Z" style="fill:rgb(144,38,130);"/>
    </g>
    <g transform="matrix(1,0,0,1,-23.25,-135.67)">
        <path d="M817.54,307.57C452.53,256.56 185.03,410.94 23.25,644.09C101.31,447.73 319.88,237.14 572.47,181.67C572.41,166.34 572.35,151 572.29,135.67C654.04,192.97 735.78,250.27 817.53,307.58L817.54,307.57Z" style="fill:rgb(144,38,130);"/>
    </g>
    <g transform="matrix(1,0,0,1,-23.25,-135.67)">
        <path d="M529.91,489.14C534.46,481.88 530.62,487.43 534,484.18L545.34,573.29L486.07,573.24L529.91,489.14ZM344.27,698.08L419.54,698.51L453.92,634.67L552.24,635.11L560.56,698.02L630.28,698.55L606.19,528.78L580.79,363.33L527.59,363.45L344.28,698.08L344.27,698.08ZM766.76,435.65C769.42,424.32 766.42,430.89 771.85,427.56C786.6,427.58 825.73,425.79 837.53,429.89C854.72,435.85 857,457.28 850.67,475.41C836.92,514.83 798.13,509.49 753.04,509.58L766.77,435.65L766.76,435.65ZM643.97,698.14L714.45,697.46L720.38,666.72C726.6,636.25 732.42,605.38 739.1,574.21C758.47,574.4 818.26,585.29 870.32,554.06C937.49,513.76 948.43,390.95 860.04,367.41C834.52,360.61 742.52,362.22 711.53,363.71L643.96,698.14L643.97,698.14ZM166.6,487.73C158.66,415.28 210.44,368.52 277.73,361.83C291.96,360.41 302.42,360.6 316.59,362.33C347.86,366.14 380.53,383.73 396.53,411.4L347.08,453.48C334.93,442.82 335.45,435.73 317.16,428.65C291.49,418.7 253.96,423.75 239.78,451.34C214.3,500.91 290.88,493.51 328.18,514.41C350.23,526.77 367.04,545.54 369.77,579.62C378.29,686.1 260.91,720.34 179.71,692.34C157.55,684.7 128.2,660.44 120,644.82C127.48,637.72 164.27,604.42 172.83,600.33C184.08,625.91 218.71,639.85 250.44,636.5C295.81,631.7 308.95,596.97 297.3,578.93C278.74,550.21 184.96,573.31 166.59,487.73L166.6,487.73Z" style="fill:rgb(236,112,35);"/>
    </g>
</svg>
