<svg version="1.2" xmlns="http://www.w3.org/2000/svg" viewBox="0 0 938 250" width="938" height="250"><style>.a{fill:#808080}.b{fill:#b52025}.c{fill:#ccc}.d{fill:#c8c7c7}.e{fill:#941f27}.f{fill:#911d26}.g{fill:#911a1e}.h{fill:#74171e}.i{fill:#fff}.j{fill:#e1e1e0}.k{fill:#741518}.l{fill:#b4b4b3}</style><path class="a" d="m814.7 201.9l-4.4 24.5h26.6l0.9-4.8h-21.2l2.6-15h21.3l0.7-4.8h-16.2z"/><path class="a" d="m817.5 186l-0.9 4.8h5.4 5.4 15.9l0.7-4.8z"/><path class="a" d="m650 226.4h-6.9l-12.8-18-4.7 4.2-2.4 13.8h-5.4l7.1-40.4h5.4l-3.8 21 23.3-21h6.6l-21.4 18.9z"/><path class="a" d="m698.5 214.8c-0.3 1.6-1 3.2-1.9 4.7-1 1.6-2.2 2.9-3.8 4-1.6 1.1-3.4 2-5.5 2.7-2 0.6-4.4 0.9-7.1 0.9-2.9 0-5.5-0.3-7.7-0.7-2.2-0.6-4.4-1.4-6.6-2.4l1.1-6.8h0.4c1.8 1.8 3.9 3 6.4 4 2.5 0.9 4.9 1.3 7.3 1.3 3.4 0 6.1-0.7 8.1-1.8 2.1-1.3 3.2-2.9 3.6-5 0.3-1.8 0.1-3.1-0.5-4-0.8-0.8-2-1.5-3.7-2-1.3-0.4-2.7-0.6-4.2-0.8-1.6-0.2-3.2-0.6-4.9-0.9-3.5-0.8-5.9-2-7.3-3.9-1.4-1.8-1.8-4.2-1.3-7.2 0.6-3.3 2.5-6.1 5.8-8.2 3.2-2.2 7-3.3 11.4-3.3 2.8 0 5.4 0.3 7.7 0.8 2.3 0.5 4.3 1.2 6 2l-1.2 6.3h-0.4c-1.3-1.3-3.1-2.4-5.4-3.2-2.4-0.9-4.9-1.3-7.5-1.3-2.8 0-5.2 0.6-7.2 1.8q-2.9 1.8-3.4 4.7c-0.3 1.7-0.1 2.9 0.5 3.9 0.7 1 2.2 1.7 4.3 2.2 1.1 0.3 2.7 0.6 4.8 1 2 0.4 3.8 0.7 5.2 1.1 2.9 0.8 4.9 2 6.1 3.7 1 1.3 1.4 3.5 0.9 6.4z"/><path class="a" d="m747.5 198.2c-0.3 1.8-1 3.4-1.8 5-0.9 1.5-2 2.9-3.3 3.9-1.6 1.5-3.5 2.4-5.5 3.2-2 0.7-4.4 1.1-7.3 1.1h-5.4l-2.7 15.1h-5.4l7.1-40.4h11q3.6 0 6.1 0.5c1.6 0.4 3 1.1 4.1 2 1.4 1 2.3 2.3 2.9 3.8 0.6 1.5 0.6 3.4 0.2 5.8zm-5.6 0.1c0.3-1.4 0.2-2.6-0.1-3.7-0.3-1-0.8-1.8-1.7-2.5-0.8-0.6-1.7-0.9-2.8-1.2-1.1-0.3-2.4-0.4-4.1-0.4h-5.3l-2.9 16.1h4.5c2.2 0 3.9-0.1 5.4-0.5 1.4-0.4 2.6-1 3.6-1.9 1-0.8 1.8-1.8 2.4-2.7 0.4-0.9 0.8-2 1-3.2z"/><path class="a" d="m794.1 226.4h-6.9l-10.7-16.1h-7.6l-2.8 16.1h-5.4l7.1-40.4h11.3c2.4 0 4.4 0.2 5.9 0.4q2.3 0.5 4.1 1.8c1.3 0.9 2.2 2.1 2.8 3.4 0.5 1.5 0.6 3.2 0.3 5.3-0.5 2.9-1.7 5.4-3.5 7.3-1.8 2-4 3.5-6.8 4.5zm-7.5-29.1c0.2-1.1 0.2-2.2 0-3.1-0.3-0.8-0.8-1.6-1.7-2.3-0.7-0.5-1.5-0.8-2.6-1q-1.6-0.3-3.7-0.3h-6.4l-2.7 15.3h5.4c1.7 0 3.2-0.2 4.5-0.5 1.4-0.3 2.5-0.9 3.6-1.6 1-0.8 1.7-1.7 2.2-2.6 0.8-1.1 1.2-2.3 1.4-3.9z"/><path class="a" d="m887.8 214.8c-0.3 1.6-0.9 3.2-1.9 4.7-1 1.6-2.2 2.9-3.8 4-1.6 1.1-3.4 2-5.4 2.7-2.1 0.6-4.5 0.9-7.2 0.9-2.9 0-5.4-0.3-7.7-0.7-2.2-0.6-4.4-1.4-6.6-2.4l1.2-6.8h0.3c1.8 1.8 3.9 3 6.4 4 2.5 0.9 4.9 1.3 7.3 1.3 3.4 0 6.1-0.7 8.1-1.8 2.1-1.3 3.3-2.9 3.6-5 0.3-1.8 0.1-3.1-0.5-4-0.8-0.8-2-1.5-3.7-2-1.2-0.4-2.7-0.6-4.2-0.8-1.6-0.2-3.2-0.6-4.9-0.9-3.5-0.8-5.9-2-7.2-3.9-1.5-1.8-1.9-4.2-1.4-7.2 0.6-3.3 2.5-6.1 5.8-8.2 3.3-2.2 7-3.3 11.4-3.3 2.8 0 5.4 0.3 7.7 0.8 2.3 0.5 4.3 1.2 6 2l-1.2 6.3h-0.3c-1.4-1.3-3.2-2.4-5.5-3.2-2.3-0.9-4.8-1.3-7.4-1.3-2.9 0-5.3 0.6-7.3 1.8q-2.8 1.8-3.4 4.7c-0.3 1.7-0.1 2.9 0.6 3.9 0.6 1 2.1 1.7 4.2 2.2 1.1 0.3 2.7 0.6 4.8 1 2 0.4 3.9 0.7 5.2 1.1 2.9 0.8 4.9 2 6.2 3.7 1 1.3 1.4 3.5 0.8 6.4z"/><path class="a" d="m575.8 201.9l-4.3 24.5h26.5l0.9-4.8h-21.3l2.7-15h21.2l0.9-4.8h-16.3z"/><path class="a" d="m578.6 186l-0.9 4.8h5.4 5.4 15.8l0.9-4.8z"/><path class="b" d="m327.9 135.3c2.1 0.6 4.2 1.1 6.5 1.5 1.9 0.5 4.1 0.9 6.5 1.2 2.4 0.3 4.8 0.3 7.3 0.3 4.3 0 6.5-1.6 6.5-4.9 0-1.2-0.7-2.5-2-3.8-1.3-1.3-3-2.7-5-4.3-2-1.7-4.2-3.4-6.6-5.3-2.3-1.9-4.5-4.2-6.5-6.7-2-2.5-3.7-5.3-5-8.3q-2-4.6-2-10.7c0-4.5 0.7-8.5 2.4-11.9q2.4-5.2 6.6-8.7c2.8-2.3 6.2-4 10-5.2 3.9-1.1 7.9-1.8 12.3-1.8 2.3 0 4.5 0.1 6.8 0.4 2.3 0.2 4.3 0.4 6.1 0.6q3.1 0.5 6 0.9v26.8c-0.8-0.1-1.6-0.1-2.5-0.2-0.8-0.1-1.6-0.2-2.5-0.3-0.9-0.1-1.9-0.2-3-0.2-0.5 0-1.2 0-2.1 0.1-0.9 0.1-1.6 0.2-2.4 0.4-0.8 0.1-1.4 0.4-2 0.9q-0.9 0.7-0.9 2c0 0.8 0.7 1.8 1.9 2.9q1.9 1.8 4.7 4.1c1.8 1.5 3.8 3.2 6 5.3q3.3 3 6.1 6.9c1.8 2.6 3.4 5.5 4.6 8.7 1.3 3.3 1.9 7 1.9 10.9q0 6.4-2 11.8c-1.3 3.7-3.4 7-6.1 9.7-2.8 2.7-6.4 4.9-10.7 6.4-4.4 1.5-9.5 2.4-15.4 2.4-3.6 0-7-0.2-10-0.5-3.1-0.3-5.8-0.7-8.2-1.2q-4.1-0.7-7.5-1.8v-28.4z"/><path fill-rule="evenodd" class="b" d="m429.6 66.9v100.8h-32v-100.8z"/><path class="b" d="m441 117.3c0-7.7 1.3-14.6 3.9-20.8 2.6-6.2 6.3-11.4 10.8-15.9q6.8-6.6 15.9-10.1c6-2.3 12.4-3.5 19.2-3.5 5.4 0 10.2 0.5 14.4 1.5 4.2 1.1 7.7 2.2 10.7 3.6 3.5 1.5 6.6 3.1 9.1 5l-14.8 26.5c-1.6-1.1-3.2-2.2-5-3.2-1.6-0.8-3.5-1.6-5.7-2.3-2.2-0.6-4.7-1-7.6-1-2.9 0-5.6 0.5-8.1 1.5-2.5 1.1-4.6 2.5-6.5 4.3q-2.7 2.8-4.3 6.4c-1.1 2.4-1.5 5.1-1.5 7.8 0 2.8 0.5 5.4 1.6 7.8 1.1 2.4 2.6 4.6 4.4 6.3q2.9 2.8 6.7 4.4c2.5 1 5.3 1.5 8.3 1.5 3.1 0 5.7-0.4 8.1-1.2 2.3-0.7 4.4-1.6 6-2.6q2.9-1.5 4.9-3.7l14.8 26.5c-2.5 2.2-5.6 4-9 5.6-3 1.4-6.7 2.6-10.9 3.8-4.2 1.1-9.1 1.7-14.5 1.7-7.3 0-14.2-1.2-20.4-3.6-6.3-2.5-11.7-5.9-16.2-10.3-4.5-4.5-8.1-9.8-10.6-15.9-2.5-5.8-3.7-12.6-3.7-20.1z"/><path class="b" d="m533.4 67.4h55.7v26.2h-25.5v11.2h25.1v24.8h-25.1v11.5h26.4v26.3h-56.6z"/><path class="b" d="m680 105.5c0 6.9-1.1 12.7-3.5 17.6-2.4 5-5.6 8.9-9.8 11.9q-6.2 4.5-14.4 6.6c-5.5 1.5-11.3 2.1-17.7 2.1v24h-31.6v-100.5h31.6c6.4 0 12.2 0.6 17.7 2.1q8.2 2.1 14.4 6.6c4.2 3 7.4 6.9 9.8 11.9 2.3 4.8 3.5 10.7 3.5 17.7zm-45.4 11.1h1.4c4.1 0 7.1-1 8.9-3 1.8-1.9 2.8-4.7 2.8-8.1 0-3.6-1-6.3-2.8-8.2-1.8-1.9-4.8-3-8.9-3h-1.4z"/><path class="b" d="m784 93.2h-17.4v-26.4h65.9v26.4h-17.4v74.5h-31.1z"/><path class="b" d="m718.7 67.2l-18.3 32.1 29.4-13.8z"/><path class="b" d="m742.4 144l-42.9 23.6h75.5l-37.5-65.7-14.1 14.1 9.7 14z"/><path class="b" d="m694.2 113.7l-28.6 53.9h16.6l26.6-33.1z"/><path class="c" d="m723.4 116.1l-16.2 20.8 19.8-15.7z"/><path fill-rule="evenodd" class="d" d="m126 236.9c-41.8 0-75.7-3.8-75.7-8.5 0-4.7 33.9-8.6 75.7-8.6 41.9 0 75.8 3.9 75.8 8.6 0 4.7-33.9 8.5-75.8 8.5z"/><path class="e" d="m213 220c-2.3 6.1-9 9.2-15.1 6.9l-142.4-53c-6.1-2.3-9.2-9-6.9-15.1l53-142.3c2.3-6.1 9-9.2 15.1-7l142.4 53c6.1 2.4 9.2 9.1 7 15.1z"/><path class="b" d="m209.8 214.1c-2.1 5.6-8.5 8.6-14.3 6.5l-134.1-49.9c-5.7-2.1-8.7-8.5-6.6-14.3l50-134.1c2.1-5.6 8.4-8.6 14.2-6.5l134.2 49.9c5.7 2.1 8.6 8.5 6.5 14.3z"/><path class="f" d="m199.5 228.7c-2.2 0-4.4-0.4-6.5-1.2l-134.1-49.9c-4.7-1.7-8.3-5.1-10.3-9.6-2.1-4.4-2.3-9.5-0.5-14.1l49.8-134.1c2.6-7.2 9.6-12 17.3-12 2.2 0 4.3 0.4 6.4 1.2l134.2 49.9c4.6 1.7 8.3 5.1 10.3 9.6 2 4.4 2.2 9.4 0.5 14.1l-50 134.1c-2.6 7.1-9.5 12-17.1 12zm-84.3-206.2c-1.3 0-2.9 0.8-3.5 2.4l-50 134.1c-0.4 1.3-0.1 2.3 0.1 2.8 0.2 0.5 0.9 1.5 2.2 1.9l134.1 50c1.7 0.5 4 0.1 4.8-2.2l49.9-134.1c0.5-1.3 0.1-2.3-0.1-2.9-0.2-0.5-0.9-1.5-2.1-1.9l-134.2-49.9c-0.4-0.2-0.9-0.2-1.2-0.2z"/><path class="g" d="m251.4 73l-60.4 27.4-22.3 11.6 1.8 6.7 3.4 12.1 5.2 18.7-96.2 7.4 62.3-32.6-0.8-2.9-82.6 37.4-0.1 0.3c-0.4 1.3-0.1 2.3 0.1 2.8 0.2 0.5 0.9 1.5 2.2 1.9l134.1 49.9c0.4 0.2 0.9 0.2 1.4 0.2 1.3 0 2.8-0.8 3.4-2.4l49.9-134.1c0.5-1.3 0.1-2.3-0.1-2.9-0.1-0.3-0.5-1-1.3-1.5z"/><path class="h" d="m261.2 68.7l-9.7 4.3c0.7 0.5 1.1 1.2 1.3 1.6 0.2 0.5 0.6 1.6 0.1 2.9l-50 134.1c-0.5 1.6-2 2.4-3.4 2.4-0.5 0-0.9-0.1-1.4-0.2l-134.1-50c-1.3-0.4-1.9-1.4-2.2-1.9-0.2-0.5-0.5-1.5-0.1-2.8l0.1-0.3-9 4.1c0.3 2.3 1.8 4.2 4.1 5.1l142.7 53c0.7 0.3 1.4 0.4 2.2 0.4 2.5 0 4.8-1.7 5.8-4.3l53.5-143.7c0.5-1.6 0.6-3.3 0.1-4.7z"/><path class="i" d="m231.1 79.4l-96.4 7.4 5.3 18.7 5.3 18.9z"/><path class="j" d="m82.9 156.9l96.4-7.4-5.3-18.6-5.3-18.9z"/><path class="k" d="m168.8 112.1l1.8 6.6z"/><path class="l" d="m168.7 112l-23.8 12.5 25.7-5.8-1.8-6.6z"/></svg>