<?xml version="1.0" encoding="UTF-8" standalone="no"?><!DOCTYPE svg PUBLIC "-//W3C//DTD SVG 1.1//EN" "http://www.w3.org/Graphics/SVG/1.1/DTD/svg11.dtd"><svg width="100%" height="100%" viewBox="0 0 1228 250" version="1.1" xmlns="http://www.w3.org/2000/svg" xmlns:xlink="http://www.w3.org/1999/xlink" xml:space="preserve" xmlns:serif="http://www.serif.com/" style="fill-rule:evenodd;clip-rule:evenodd;stroke-linejoin:round;stroke-miterlimit:2;"><g id="format_x0020_logo_x0020_utk_x0020_jpg"><rect x="-543.301" y="-1073.819" width="2314.725" height="2397.638" style="fill:none;"/></g><g id="Layer_x0020_1"><path d="M75.902,209.4c19.718,18.701 46.257,30.02 75.277,30.02c29.019,0 55.558,-11.319 75.401,-30.02l14.634,0c-22.323,25.098 -54.442,40.6 -90.034,40.6c-35.592,0 -67.712,-15.502 -90.034,-40.6l14.758,0Zm20.462,0c3.72,2.584 7.689,4.921 11.781,7.013c2.728,-2.584 5.953,-4.921 9.053,-7.013l12.401,0c-0.496,0.246 -1.116,0.492 -1.488,0.738c-1.984,0.861 -3.844,1.969 -5.705,3.076c-2.728,1.599 -5.333,3.691 -7.937,5.906c11.285,4.798 23.811,7.382 36.708,7.382c12.897,0 25.423,-2.584 36.708,-7.382c-2.604,-2.215 -5.209,-4.183 -7.937,-5.906c-1.86,-1.107 -3.72,-2.215 -5.705,-3.076c-0.372,-0.123 -0.868,-0.492 -1.488,-0.738l12.401,0c3.1,1.969 6.325,4.429 9.053,7.013c4.092,-2.215 8.061,-4.429 11.781,-7.013l9.921,0c-5.333,4.183 -11.037,7.997 -17.114,11.196c-1.984,1.107 -4.092,2.215 -6.077,3.076c-12.773,5.536 -26.787,8.612 -41.545,8.612c-14.758,0 -28.771,-3.076 -41.545,-8.612c-1.984,-0.861 -4.092,-1.969 -6.077,-3.076c-6.077,-3.076 -11.781,-7.013 -17.114,-11.196l9.921,0Z" style="fill:#f00;"/><path d="M48.123,168.799c6.325,15.502 15.874,29.528 27.903,40.6l-14.758,0c-10.541,-11.688 -18.85,-25.468 -24.307,-40.6l11.285,0l-0.124,0Zm13.89,0c4.961,10.827 11.781,20.546 20.09,28.789c4.465,-4.921 9.425,-9.473 14.634,-13.41c-2.604,-4.798 -4.837,-9.843 -6.821,-15.379l5.953,0c1.612,4.183 3.472,8.366 5.581,12.057c1.984,-1.107 3.844,-2.338 5.953,-3.445l-7.689,-8.612l12.897,0l2.976,4.552c1.488,-0.492 2.976,-1.107 4.589,-1.845c-0.372,-0.861 -0.496,-1.845 -0.744,-2.707l4.837,0c0.124,0.369 0.124,0.861 0.372,1.23c1.488,-0.369 3.1,-0.861 4.589,-1.23l44.645,0c1.488,0.369 3.1,0.861 4.589,1.23c0.124,-0.369 0.124,-0.861 0.372,-1.23l4.837,0c-0.124,0.861 -0.372,1.845 -0.744,2.707c6.697,2.584 12.773,5.659 18.602,9.35c1.984,-3.691 3.844,-7.874 5.581,-12.057l5.953,0c-1.984,5.536 -4.216,10.581 -6.821,15.379c5.209,3.814 10.169,8.366 14.634,13.41c8.309,-8.243 15.13,-17.963 20.09,-28.789l6.449,0c-5.581,12.426 -13.27,23.745 -22.695,33.342c-1.24,1.23 -2.728,2.584 -4.216,3.814c-1.24,1.107 -2.604,2.338 -4.092,3.445l-9.921,0c3.472,-2.338 7.069,-5.167 10.169,-7.874c-4.092,-4.552 -8.681,-8.612 -13.518,-12.057c-4.961,7.874 -10.913,14.641 -17.486,19.931l-12.401,0c-1.86,-0.738 -3.72,-1.476 -5.581,-2.215c-1.612,-0.369 -3.1,-0.861 -4.837,-1.23c-3.472,-0.738 -7.441,-1.107 -11.285,-1.107c-3.844,0 -7.689,0.369 -11.285,1.107c-1.612,0.369 -3.1,0.861 -4.837,1.23c-1.86,0.738 -3.72,1.476 -5.581,2.215l-12.401,0c-6.697,-5.29 -12.525,-12.057 -17.486,-19.931c-4.837,3.445 -9.425,7.505 -13.518,12.057c3.1,2.707 6.697,5.536 10.169,7.874l-9.921,0c-1.488,-1.107 -2.728,-2.338 -4.092,-3.445c-1.488,-1.23 -2.976,-2.584 -4.216,-3.814c-9.425,-9.473 -17.114,-20.915 -22.695,-33.342l6.449,0l-0.124,0Zm203.631,0c-5.581,15.133 -13.89,28.912 -24.307,40.6l-14.634,0c11.781,-11.196 21.454,-25.098 27.655,-40.6l11.285,0Zm-161.218,17.594c5.209,8.243 11.285,15.01 18.106,20.177c2.976,-1.599 6.077,-2.953 9.177,-4.06c-4.092,-6.398 -7.565,-14.764 -10.293,-24.483c-0.868,0.369 -1.86,0.492 -2.728,1.107l1.24,1.845l-5.705,0c-3.348,1.599 -6.697,3.445 -9.797,5.536l0,-0.123Zm75.649,20.177c6.821,-5.167 12.897,-11.934 18.106,-20.177c-5.333,-3.445 -11.037,-6.275 -16.99,-8.366c-2.728,9.719 -6.325,18.086 -10.293,24.483c3.1,1.107 6.325,2.338 9.177,4.06Zm-54.194,-30.02c2.728,10.089 6.325,18.455 10.293,24.729c4.837,-1.23 9.921,-1.969 15.13,-1.969c5.209,0 10.293,0.738 15.13,1.969c4.092,-6.275 7.565,-14.641 10.293,-24.729c-8.061,-2.584 -16.618,-3.814 -25.423,-3.814c-8.805,0 -17.362,1.23 -25.423,3.814Z" style="fill:#f00;"/><path d="M95.993,107.776l-3.844,6.029l22.695,1.107c0.124,-2.338 0.372,-4.798 0.496,-7.136l4.837,0c-0.124,2.338 -0.124,4.798 -0.372,7.259l31.5,1.476l8.681,-8.735l10.665,0l-10.293,15.502l9.549,15.502l-9.177,0l-10.169,-9.104l-31.004,1.23c0.372,13.78 1.86,26.575 4.216,37.648l-4.837,0c-2.356,-11.319 -3.844,-23.991 -4.216,-37.525l-25.051,1.107l22.447,36.417l-12.897,0l-4.092,-4.429l-1.116,0c0.496,1.476 0.868,2.953 1.488,4.429l-5.953,0c-0.496,-1.476 -0.868,-2.953 -1.488,-4.429l-1.488,0l-5.209,-6.767l4.589,-0.369c-0.124,-1.23 -0.496,-2.338 -0.744,-3.691l-1.86,-1.845l-8.061,0l-5.953,-7.505l6.821,-0.492l-9.797,-10.581c-4.961,0 -9.549,0.123 -14.014,0.123l-5.953,0.369l-6.821,0.246l-10.541,0.738c-7.565,0.369 -14.386,0.738 -21.082,0.861c-3.1,0 -10.665,0.492 -7.689,-5.659c2.356,-4.921 8.061,-11.688 13.518,-14.272c5.953,-2.707 9.921,-4.552 15.874,-4.798c12.897,-0.369 39.685,2.707 39.685,2.707l5.209,-5.659l21.206,0l0.248,0.246Zm90.902,0c0.372,3.076 0.496,6.398 0.496,9.719l-4.961,0c0,-3.322 -0.124,-6.644 -0.372,-9.719l4.837,0Zm31.872,0c0.372,3.076 0.744,6.398 0.868,9.719l-5.705,0c-0.248,-3.322 -0.496,-6.644 -0.868,-9.719l5.705,0Zm35.84,0c0.372,3.076 0.744,6.398 1.116,9.719l-5.953,0c-0.372,-3.322 -0.744,-6.644 -1.24,-9.719l6.077,0Zm17.362,0c0.372,3.076 0.744,6.398 0.868,9.719l-10.293,0c-0.248,-3.322 -0.496,-6.644 -1.116,-9.719l10.541,0Zm-235.255,60.901c-2.728,-7.874 -4.961,-15.871 -6.325,-24.483l10.541,0c1.488,8.612 3.844,16.855 7.069,24.483l-11.285,0Zm18.602,0c-3.348,-7.628 -5.953,-15.871 -7.441,-24.483l5.953,0c1.612,8.612 4.465,16.855 7.937,24.483l-6.449,0Zm73.416,0c7.193,-1.845 14.634,-2.707 22.323,-2.707c7.689,0 15.13,0.861 22.323,2.707l-44.645,0Zm49.606,0c2.232,-10.827 3.72,-23.007 4.092,-36.048l4.961,0c-0.372,13.041 -1.86,25.098 -4.216,36.048l-4.837,0Zm28.275,0c4.092,-10.827 6.697,-23.007 7.441,-36.048l5.705,0c-0.744,12.795 -3.348,25.098 -7.193,36.048l-5.953,0Zm33.732,0c5.209,-10.95 8.433,-23.253 9.425,-36.048l5.953,0c-0.868,12.795 -4.092,24.852 -8.805,36.048l-6.573,0Zm13.89,0c4.589,-11.196 7.441,-23.376 8.309,-36.048l10.293,0c-0.744,12.672 -3.348,24.729 -7.317,36.048l-11.285,0Zm-67.34,-46.506l123.766,0l0,5.659l-123.766,0l0,-5.659Z" style="fill:#f00;"/><path d="M74.786,107.776l3.72,-4.183l-7.069,-0.492l5.953,-7.505l8.309,0c0.372,-1.845 0.868,-3.691 1.24,-5.536l-3.348,-0.123l5.209,-6.767l0.372,0c1.984,-6.275 4.589,-11.934 7.317,-16.978c-5.209,-4.06 -10.169,-8.366 -14.634,-13.41c-13.146,13.041 -22.695,29.774 -26.911,48.72l-6.077,0c10.541,-47.982 52.21,-83.661 102.188,-83.661c51.962,0 95.367,39.001 103.552,90.059l-6.077,0c-3.472,-21.407 -13.642,-40.6 -28.275,-55.118c-4.465,4.921 -9.425,9.35 -14.634,13.41c6.449,11.934 11.037,26.206 13.146,41.708l-5.705,0c-1.86,-14.518 -6.077,-27.436 -12.029,-38.632c-5.953,3.814 -12.029,7.013 -18.602,9.35c2.232,8.981 3.72,18.701 4.465,29.281l-4.837,0c-0.744,-10.089 -2.232,-19.439 -4.092,-27.805c-8.433,2.707 -17.486,4.183 -26.911,4.183c-9.425,0 -18.478,-1.476 -26.911,-4.183c-1.86,8.366 -3.348,17.717 -4.092,27.805l-4.837,0c0.744,-10.581 2.232,-20.3 4.465,-29.281c-1.488,-0.492 -2.976,-1.107 -4.216,-1.599l-19.594,30.881l-21.206,0l0.124,-0.123Zm85.198,0l0.372,-0.492l10.541,0l-0.124,0.492l-10.789,0Zm101.444,0c-8.061,-54.872 -54.442,-96.949 -110.373,-96.949c-53.698,0 -98.467,38.755 -109.257,90.551l-10.541,0c10.665,-57.825 60.271,-101.378 119.674,-101.378c61.635,0 112.481,46.875 120.79,107.776l-10.541,0l0.248,0Zm-161.839,-47.244c4.961,-7.874 10.913,-14.641 17.486,-19.808c-3.1,-2.215 -6.325,-4.429 -9.053,-7.013c-7.937,3.814 -15.254,8.981 -21.951,14.764c4.092,4.429 8.681,8.366 13.518,11.934l0,0.123Zm22.695,-23.622c1.86,1.107 3.72,2.215 5.705,3.076c2.232,1.107 4.589,1.969 7.193,2.707c1.488,0.492 2.976,0.861 4.589,1.23c3.72,0.738 7.441,1.23 11.285,1.23c3.844,0 7.565,-0.492 11.285,-1.23c1.612,-0.369 3.1,-0.738 4.589,-1.23c2.604,-0.738 4.961,-1.599 7.193,-2.707c1.984,-0.861 3.844,-1.969 5.705,-3.076c2.728,-1.845 5.333,-3.814 7.937,-6.029c-11.285,-4.552 -23.811,-7.136 -36.708,-7.136c-12.897,0 -25.423,2.584 -36.708,7.136c2.604,2.215 5.209,4.183 7.937,6.029Zm0,6.767c-6.821,5.167 -12.897,11.934 -18.106,20.177c2.356,1.476 4.589,2.707 7.193,4.06l1.116,-1.23l9.425,0l-2.976,4.798l2.232,0.861c2.728,-9.843 6.449,-18.086 10.541,-24.483c-3.348,-1.107 -6.449,-2.338 -9.425,-4.06l0,-0.123Zm-21.206,25.468c-2.232,4.429 -4.216,8.981 -6.077,13.903l2.356,0l9.549,-10.458c-1.984,-1.107 -3.844,-2.215 -5.953,-3.445l0.124,0Zm96.855,-5.29c-5.209,-8.243 -11.285,-15.01 -18.106,-20.177c-2.976,1.599 -6.077,2.953 -9.425,4.06c4.092,6.398 7.689,14.641 10.541,24.483c5.953,-2.215 11.657,-5.167 16.99,-8.366Zm-12.897,-23.007c6.697,5.167 12.525,11.934 17.486,19.808c4.837,-3.445 9.425,-7.505 13.518,-11.934c-6.697,-5.906 -14.014,-10.95 -21.951,-14.764c-2.728,2.584 -5.953,4.798 -9.053,7.013l0,-0.123Zm-49.11,8.243c-4.092,6.029 -7.565,14.518 -10.293,24.729c8.061,2.584 16.618,3.814 25.423,3.814c8.805,0 17.362,-1.23 25.423,-3.814c-2.728,-10.212 -6.325,-18.701 -10.293,-24.729c-4.837,1.23 -9.921,1.845 -15.13,1.845c-5.209,0 -10.293,-0.492 -15.13,-1.845Z" style="fill:#f00;"/><path d="M1026.223,226.747l25.299,-152.805l28.647,0c-17.362,-4.921 -29.143,-14.641 -29.143,-25.96c0,-16.117 24.183,-29.281 54.194,-29.281c29.887,0 54.07,13.164 54.07,29.281c0,11.319 -11.781,21.038 -29.143,25.96l22.695,0l-25.423,152.805l-101.196,0Zm-308.051,0l36.584,-208.046l101.32,-0l-36.708,208.046l-101.196,0Zm-130.091,0l25.299,-152.805l28.771,0c-17.362,-4.921 -29.391,-14.641 -29.391,-25.96c0,-16.117 24.307,-29.281 54.194,-29.281c29.887,0 54.194,13.164 54.194,29.281c0,11.319 -12.029,21.038 -29.391,25.96l22.695,0l-25.423,152.805l-101.072,0l0.124,0Zm-190.734,0l27.159,-150.96l-64.983,0l10.293,-58.809l226.574,0l-10.913,58.809l-59.775,0l-27.283,150.96l-101.072,0Z" style="fill:#0632ad;"/><path d="M1196.619,33.465l0,8.612l3.472,0c2.232,0 3.844,-0.123 4.837,-0.861c0.868,-0.738 1.488,-1.845 1.488,-3.322c0,-1.476 -0.496,-2.584 -1.612,-3.322c-0.868,-0.738 -2.604,-1.107 -4.961,-1.107l-3.224,0Zm-7.317,-4.798l11.781,0c4.216,0 7.565,0.738 9.797,2.215c2.232,1.476 3.1,3.691 3.1,6.644c0,1.969 -0.496,3.691 -1.612,5.167c-1.24,1.23 -2.728,2.338 -4.961,2.707l6.821,13.533l-8.061,0l-5.953,-12.303l-3.472,0l0,12.303l-7.317,0l0,-30.143l-0.124,-0.123Zm11.285,-7.013c-3.1,0 -5.953,0.492 -8.681,1.599c-2.604,1.107 -4.961,2.584 -7.193,4.798c-2.232,2.215 -3.844,4.798 -5.209,7.505c-1.116,2.707 -1.86,5.659 -1.86,8.612c0,3.076 0.744,5.906 1.86,8.612c1.116,2.707 2.728,5.167 4.837,7.259c2.232,2.215 4.589,3.814 7.565,4.921c2.728,1.23 5.705,1.845 8.681,1.845c2.976,0 5.705,-0.492 8.433,-1.599c2.976,-1.23 5.333,-2.707 7.689,-4.921c1.984,-1.969 3.72,-4.429 4.837,-7.136c1.24,-2.707 1.86,-5.536 1.86,-8.366c0,-3.322 -0.496,-6.275 -1.612,-8.981c-1.116,-2.707 -2.728,-5.167 -4.837,-7.259c-2.232,-2.215 -4.837,-4.06 -7.565,-5.167c-2.728,-1.107 -5.705,-1.599 -8.805,-1.599l0,-0.123Zm0,-4.552c3.72,0 7.441,0.738 10.665,1.969c3.348,1.476 6.325,3.445 8.805,6.275c2.604,2.338 4.589,5.29 5.953,8.612c1.24,3.322 1.984,6.767 1.984,10.458c0,3.691 -0.744,7.136 -2.232,10.458c-1.24,3.322 -3.348,6.275 -5.953,8.735c-2.604,2.584 -5.705,4.429 -9.053,5.906c-3.348,1.23 -6.821,1.969 -10.293,1.969c-3.72,0 -7.193,-0.738 -10.541,-2.215c-3.348,-1.23 -6.325,-3.322 -9.053,-6.029c-2.356,-2.584 -4.465,-5.536 -5.705,-8.612c-1.24,-3.322 -1.984,-6.767 -1.984,-10.212c0,-2.584 0.372,-4.921 0.868,-7.382c0.744,-2.338 1.612,-4.552 3.1,-6.767c2.356,-4.183 5.705,-7.505 9.797,-9.719c4.092,-2.338 8.433,-3.445 13.518,-3.445l0.124,0Z" style="fill:#f00;"/><path d="M919.943,21.654l117.317,0l-99.831,100.763l64.983,104.331l-121.906,0l-61.883,-100.517l101.32,-104.577Z" style="fill:#f00;"/></g></svg>